<svg xmlns="http://www.w3.org/2000/svg" viewBox="0 0 900 512" width="900" height="512" shape-rendering="crispEdges" role="img" aria-label="Secret ending, rest at the bonfire. Night on the now-peaceful catacomb grounds, the sealed barrow quiet on the horizon under stars and a moon. A crackling campfire throws sparks and warm flickering light over the party resting around it: the ape paladin sits back against a tombstone, helmet off in the grass beside him, holding a banana and smiling; Brakka the dwarf snores with his tankard, a bubble swelling from his nose; Xal&#39;Zor the beholder dozes in mid-air, eye shut and eyestalks drooping; Gus the gelatinous cube roasts a marshmallow on a stick, another floating inside him; the three Clockwork Choir constructs sit in sleep mode behind a fallen log, Z&#39;s drifting up. Fireflies glow in the grass.">
<title>Secret ending, rest at the bonfire. Night on the now-peaceful catacomb grounds, the sealed barrow quiet on the horizon under stars and a moon. A crackling campfire throws sparks and warm flickering light over the party resting around it: the ape paladin sits back against a tombstone, helmet off in the grass beside him, holding a banana and smiling; Brakka the dwarf snores with his tankard, a bubble swelling from his nose; Xal&#39;Zor the beholder dozes in mid-air, eye shut and eyestalks drooping; Gus the gelatinous cube roasts a marshmallow on a stick, another floating inside him; the three Clockwork Choir constructs sit in sleep mode behind a fallen log, Z&#39;s drifting up. Fireflies glow in the grass.</title>
<defs><radialGradient id="rgxht9rp"><stop offset="0" stop-color="#fff3c4" stop-opacity="0.3"/><stop offset=".45" stop-color="#fff3c4" stop-opacity="0.105"/><stop offset="1" stop-color="#fff3c4" stop-opacity="0"/></radialGradient><g id="secretBrakka0-17ukxx3"><g transform="translate(0 0) scale(4)"><path fill="#0c0a14" d="M7 0h8v1h-8zM5 1h2v1h-2zM15 1h2v1h-2zM4 2h1v1h-1zM17 2h1v1h-1zM3 3h1v2h-1zM18 3h1v2h-1zM2 5h2v1h-2zM18 5h2v1h-2zM8 6h6v1h-6zM8 7h1v1h-1zM13 7h1v1h-1zM2 6h1v3h-1zM19 6h1v3h-1zM2 9h2v1h-2zM18 9h2v1h-2zM8 10h1v1h-1zM13 10h1v1h-1zM3 10h1v2h-1zM18 10h1v2h-1zM2 12h1v1h-1zM19 12h1v1h-1zM9 13h4v1h-4zM1 13h1v3h-1zM2 16h1v1h-1zM19 16h1v1h-1zM2 17h2v1h-2zM18 17h2v1h-2zM10 19h2v1h-2zM0 16h1v5h-1zM3 18h1v3h-1zM18 18h1v3h-1zM6 19h1v2h-1zM15 19h1v2h-1zM21 19h1v2h-1zM9 20h1v1h-1zM12 20h1v1h-1zM1 21h3v1h-3zM7 21h2v1h-2zM13 21h2v1h-2zM18 21h3v1h-3zM3 22h1v1h-1zM18 22h1v1h-1zM2 23h1v1h-1zM9 23h1v1h-1zM12 23h1v1h-1zM19 23h1v1h-1zM2 24h8v1h-8zM12 24h8v1h-8z"/><path fill="#8d97a6" d="M7 1h8v1h-8zM5 2h6v1h-6zM13 2h4v1h-4zM4 3h7v1h-7zM13 3h5v1h-5zM5 4h6v1h-6zM13 4h4v1h-4z"/><path fill="#d5dbe3" d="M11 2h2v3h-2z"/><path fill="#4b5363" d="M4 4h1v1h-1zM17 4h1v1h-1zM4 5h14v1h-14z"/><path fill="#e2a77a" d="M3 6h5v2h-5zM14 6h5v2h-5zM9 7h4v1h-4zM3 8h1v1h-1zM7 8h8v1h-8zM18 8h1v1h-1zM4 9h14v1h-14zM4 10h4v1h-4zM9 10h4v1h-4zM14 10h4v1h-4zM5 11h12v1h-12zM6 12h4v1h-4zM12 12h4v1h-4zM8 13h1v1h-1zM13 13h1v1h-1zM1 19h2v2h-2zM19 19h2v2h-2z"/><path fill="#7a4a2a" d="M4 8h3v1h-3zM15 8h3v1h-3zM4 18h1v1h-1zM17 18h1v1h-1zM4 19h2v2h-2zM16 19h2v2h-2zM10 20h2v1h-2zM4 21h3v1h-3zM9 21h4v1h-4zM15 21h3v1h-3zM4 22h6v1h-6zM12 22h6v1h-6z"/><path fill="#b07246" d="M4 11h1v1h-1zM17 11h1v1h-1zM10 12h2v1h-2z"/><path fill="#e0662a" d="M3 12h2v1h-2zM17 12h2v1h-2zM2 13h6v1h-6zM14 13h6v1h-6zM2 14h1v1h-1zM4 14h14v1h-14zM19 14h1v1h-1zM2 15h18v1h-18zM3 16h2v1h-2zM6 16h10v1h-10zM17 16h2v1h-2zM4 17h2v1h-2zM7 17h8v1h-8zM16 17h2v1h-2zM5 18h2v1h-2zM8 18h6v1h-6zM15 18h2v1h-2zM7 19h1v1h-1zM9 19h1v1h-1zM12 19h1v1h-1zM14 19h1v1h-1zM8 20h1v1h-1zM13 20h1v1h-1z"/><path fill="#ff9a4d" d="M5 12h1v1h-1zM16 12h1v1h-1zM3 14h1v1h-1zM18 14h1v1h-1z"/><path fill="#9c3d14" d="M5 16h1v1h-1zM16 16h1v1h-1zM6 17h1v1h-1zM15 17h1v1h-1zM7 18h1v1h-1zM14 18h1v1h-1zM8 19h1v1h-1zM13 19h1v1h-1z"/><path fill="#3f6e4a" d="M1 16h1v2h-1zM1 18h2v1h-2zM19 18h1v1h-1z"/><path fill="#f6c84e" d="M7 20h1v1h-1zM14 20h1v1h-1zM10 22h2v1h-2z"/><path fill="#3b2418" d="M3 23h6v1h-6zM13 23h6v1h-6z"/></g></g><g id="secretBrakka1-14o090f"><g transform="translate(0 0) scale(4)"><path fill="#0c0a14" d="M7 0h8v1h-8zM5 1h2v1h-2zM15 1h2v1h-2zM4 2h1v1h-1zM17 2h1v1h-1zM3 3h1v2h-1zM18 3h1v2h-1zM2 5h2v1h-2zM18 5h2v1h-2zM8 6h6v1h-6zM8 7h1v1h-1zM13 7h1v1h-1zM2 6h1v3h-1zM19 6h1v3h-1zM2 9h2v1h-2zM18 9h2v1h-2zM8 10h1v1h-1zM13 10h1v1h-1zM3 10h1v2h-1zM18 10h1v2h-1zM2 12h1v1h-1zM19 12h1v1h-1zM9 13h4v1h-4zM1 13h1v3h-1zM2 16h1v1h-1zM19 16h1v1h-1zM2 17h2v1h-2zM18 17h2v1h-2zM10 19h2v1h-2zM0 16h1v5h-1zM3 18h1v3h-1zM18 18h1v3h-1zM6 19h1v2h-1zM15 19h1v2h-1zM21 19h1v2h-1zM9 20h1v1h-1zM12 20h1v1h-1zM1 21h3v1h-3zM7 21h2v1h-2zM13 21h2v1h-2zM18 21h3v1h-3zM3 22h1v1h-1zM18 22h1v1h-1zM2 23h1v1h-1zM9 23h1v1h-1zM12 23h1v1h-1zM19 23h1v1h-1zM2 24h8v1h-8zM12 24h8v1h-8z"/><path fill="#8d97a6" d="M7 1h8v1h-8zM5 2h6v1h-6zM13 2h4v1h-4zM4 3h7v1h-7zM13 3h5v1h-5zM5 4h6v1h-6zM13 4h4v1h-4z"/><path fill="#d5dbe3" d="M11 2h2v3h-2z"/><path fill="#4b5363" d="M4 4h1v1h-1zM17 4h1v1h-1zM4 5h14v1h-14z"/><path fill="#e2a77a" d="M3 6h5v2h-5zM14 6h5v2h-5zM9 7h4v1h-4zM3 8h16v1h-16zM4 9h14v1h-14zM4 10h4v1h-4zM9 10h4v1h-4zM14 10h4v1h-4zM5 11h12v1h-12zM6 12h4v1h-4zM12 12h4v1h-4zM8 13h1v1h-1zM13 13h1v1h-1zM1 19h2v2h-2zM19 19h2v2h-2z"/><path fill="#b07246" d="M4 11h1v1h-1zM17 11h1v1h-1zM10 12h2v1h-2z"/><path fill="#e0662a" d="M3 12h2v1h-2zM17 12h2v1h-2zM2 13h6v1h-6zM14 13h6v1h-6zM2 14h1v1h-1zM4 14h14v1h-14zM19 14h1v1h-1zM2 15h18v1h-18zM3 16h2v1h-2zM6 16h10v1h-10zM17 16h2v1h-2zM4 17h2v1h-2zM7 17h8v1h-8zM16 17h2v1h-2zM5 18h2v1h-2zM8 18h6v1h-6zM15 18h2v1h-2zM7 19h1v1h-1zM9 19h1v1h-1zM12 19h1v1h-1zM14 19h1v1h-1zM8 20h1v1h-1zM13 20h1v1h-1z"/><path fill="#ff9a4d" d="M5 12h1v1h-1zM16 12h1v1h-1zM3 14h1v1h-1zM18 14h1v1h-1z"/><path fill="#9c3d14" d="M5 16h1v1h-1zM16 16h1v1h-1zM6 17h1v1h-1zM15 17h1v1h-1zM7 18h1v1h-1zM14 18h1v1h-1zM8 19h1v1h-1zM13 19h1v1h-1z"/><path fill="#3f6e4a" d="M1 16h1v2h-1zM1 18h2v1h-2zM19 18h1v1h-1z"/><path fill="#7a4a2a" d="M4 18h1v1h-1zM17 18h1v1h-1zM4 19h2v2h-2zM16 19h2v2h-2zM10 20h2v1h-2zM4 21h3v1h-3zM9 21h4v1h-4zM15 21h3v1h-3zM4 22h6v1h-6zM12 22h6v1h-6z"/><path fill="#f6c84e" d="M7 20h1v1h-1zM14 20h1v1h-1zM10 22h2v1h-2z"/><path fill="#3b2418" d="M3 23h6v1h-6zM13 23h6v1h-6z"/></g></g><path id="g2i" d="M0 0h5v1h-5zM4 1h1v1h-1zM3 2h1v1h-1zM2 3h1v1h-1zM1 4h1v1h-1zM0 5h1v1h-1zM0 6h5v1h-5z"/><g id="t1elx4b3"><use href="#g2i" x="0"/></g><g id="tombRip-wbsav0"><g transform="translate(0 0) scale(5)"><path fill="#16121f" d="M4 0h6v1h-6zM2 1h2v1h-2zM10 1h2v1h-2zM1 2h1v1h-1zM12 2h1v1h-1zM0 3h1v13h-1zM13 3h1v13h-1zM0 16h14v1h-14z"/><path fill="#b9b2c9" d="M4 1h6v1h-6zM2 2h8v1h-8zM1 3h2v1h-2zM1 4h1v9h-1z"/><path fill="#837d99" d="M10 2h1v1h-1zM3 3h9v1h-9zM5 4h2v1h-2zM11 4h1v1h-1zM4 5h1v1h-1zM6 5h1v1h-1zM10 5h1v1h-1zM5 6h2v1h-2zM11 6h1v1h-1zM2 4h1v5h-1zM8 4h1v5h-1zM4 7h1v2h-1zM6 7h1v2h-1zM10 7h2v2h-2zM2 9h10v1h-10zM2 10h3v1h-3zM6 10h6v1h-6zM2 11h4v1h-4zM7 11h5v1h-5zM2 12h5v1h-5zM8 12h4v1h-4zM2 13h10v1h-10zM3 14h8v1h-8zM4 15h6v1h-6z"/><path fill="#544e6b" d="M11 2h1v1h-1zM5 10h1v1h-1zM6 11h1v1h-1zM7 12h1v1h-1zM12 3h1v11h-1zM11 14h2v1h-2zM10 15h2v1h-2z"/><path fill="#2e2940" d="M3 4h2v1h-2zM9 4h2v1h-2zM3 5h1v1h-1zM5 5h1v1h-1zM9 5h1v1h-1zM11 5h1v1h-1zM3 6h2v1h-2zM9 6h2v1h-2zM7 4h1v5h-1zM3 7h1v2h-1zM5 7h1v2h-1zM9 7h1v2h-1z"/><path fill="#4d7a39" d="M1 13h1v1h-1zM1 14h2v1h-2zM1 15h3v1h-3zM12 15h1v1h-1z"/><path fill="#3e2619" d="M1 17h12v1h-12z"/></g></g><g id="secretApe0-9t5liz"><g transform="translate(0 0) scale(4)"><path fill="#0c0a14" d="M5 0h7v1h-7zM3 1h2v1h-2zM12 1h2v1h-2zM14 2h1v1h-1zM2 2h1v2h-1zM15 3h1v1h-1zM1 4h1v1h-1zM17 4h1v1h-1zM7 5h1v1h-1zM11 5h1v1h-1zM16 5h1v1h-1zM20 5h2v1h-2zM17 6h1v1h-1zM0 5h1v3h-1zM22 6h1v2h-1zM18 7h1v1h-1zM1 8h2v1h-2zM19 8h1v1h-1zM23 8h1v1h-1zM18 9h1v1h-1zM20 9h1v1h-1zM22 9h1v1h-1zM24 9h1v1h-1zM2 9h1v2h-1zM17 10h1v1h-1zM25 10h1v1h-1zM23 10h1v2h-1zM3 11h1v1h-1zM16 11h1v1h-1zM1 12h2v1h-2zM5 12h11v1h-11zM18 12h1v1h-1zM22 12h2v1h-2zM7 13h1v1h-1zM15 13h1v1h-1zM17 13h1v1h-1zM22 13h1v2h-1zM16 14h2v1h-2zM14 15h1v1h-1zM17 15h1v1h-1zM21 15h1v1h-1zM12 16h1v1h-1zM17 16h4v1h-4zM8 14h1v4h-1zM11 17h1v1h-1zM17 17h1v1h-1zM27 17h3v1h-3zM9 18h1v1h-1zM16 18h1v1h-1zM21 18h3v1h-3zM26 18h1v2h-1zM8 19h1v1h-1zM15 19h1v1h-1zM24 19h1v1h-1zM20 19h1v2h-1zM7 20h1v1h-1zM14 20h1v1h-1zM7 21h14v1h-14zM0 13h1v10h-1zM25 20h2v3h-2zM18 22h1v1h-1zM30 18h1v6h-1zM7 22h1v2h-1zM15 22h1v2h-1zM1 23h1v1h-1zM19 23h1v1h-1zM26 23h2v1h-2zM2 24h6v1h-6zM16 24h1v1h-1zM18 24h1v1h-1zM26 24h4v1h-4zM7 25h1v1h-1zM17 25h1v1h-1zM26 25h1v1h-1zM8 26h18v1h-18z"/><path fill="#4a2a1c" d="M5 1h7v1h-7zM3 2h5v1h-5zM9 2h5v1h-5zM3 3h12v1h-12zM2 4h3v1h-3zM15 5h1v1h-1zM16 6h1v1h-1zM3 5h2v6h-2zM4 11h2v1h-2zM19 13h3v1h-3zM18 14h4v1h-4zM18 15h3v1h-3z"/><path fill="#7c4b2c" d="M8 2h1v1h-1zM19 12h1v1h-1zM18 13h1v1h-1z"/><path fill="#24140d" d="M5 4h12v1h-12zM6 8h1v1h-1zM17 8h1v1h-1zM7 9h9v1h-9z"/><path fill="#8a5a3e" d="M5 5h1v1h-1zM8 5h2v1h-2zM12 5h3v1h-3zM5 6h11v1h-11zM5 7h1v1h-1z"/><path fill="#f7f3ea" d="M6 5h1v1h-1zM10 5h1v1h-1z"/><path fill="#a06a44" d="M1 5h1v2h-1zM1 7h2v1h-2z"/><path fill="#4a2618" d="M2 5h1v2h-1z"/><path fill="#fff3a0" d="M20 6h2v2h-2zM21 8h1v2h-1z"/><path fill="#d4a070" d="M6 7h6v1h-6zM13 7h1v1h-1zM15 7h3v1h-3zM5 8h1v1h-1zM7 8h10v1h-10zM18 8h1v1h-1zM5 9h2v1h-2zM16 9h2v1h-2zM5 10h12v1h-12zM6 11h10v1h-10z"/><path fill="#1e0e06" d="M12 7h1v1h-1zM14 7h1v1h-1z"/><path fill="#ffe14a" d="M20 8h1v1h-1zM20 10h2v2h-2zM20 12h1v1h-1z"/><path fill="#c8a020" d="M22 8h1v1h-1zM23 9h1v1h-1zM22 10h1v2h-1zM21 12h1v1h-1z"/><path fill="#f4f8ff" d="M3 12h2v1h-2zM1 13h6v1h-6zM1 14h7v1h-7zM2 15h6v1h-6zM15 15h2v1h-2zM13 16h2v1h-2zM12 17h1v1h-1zM10 18h2v1h-2zM9 19h2v1h-2zM21 19h2v1h-2zM8 20h1v1h-1zM21 20h1v2h-1zM8 22h7v1h-7zM19 22h3v1h-3z"/><path fill="#a9b6c8" d="M8 13h7v1h-7zM9 14h7v1h-7zM9 15h5v1h-5zM9 16h3v1h-3zM15 16h2v1h-2zM2 16h6v2h-6zM9 17h2v1h-2zM13 17h3v1h-3zM3 18h6v1h-6zM12 18h3v1h-3zM3 19h5v1h-5zM11 19h3v1h-3zM23 19h1v1h-1zM4 20h3v1h-3zM9 20h3v1h-3zM27 18h1v5h-1zM22 20h2v3h-2zM8 23h7v1h-7zM20 23h5v1h-5zM8 24h8v1h-8zM19 24h5v1h-5z"/><path fill="#5d6a82" d="M1 15h1v3h-1zM16 17h1v1h-1zM15 18h1v1h-1zM1 18h2v2h-2zM14 19h1v1h-1zM1 20h3v1h-3zM12 20h2v1h-2zM24 20h1v3h-1zM28 18h2v6h-2zM25 23h1v1h-1zM24 24h2v1h-2zM8 25h9v1h-9zM18 25h8v1h-8z"/><path fill="#f6c84e" d="M1 21h6v1h-6zM2 22h5v1h-5zM16 22h2v1h-2zM17 23h1v1h-1z"/><path fill="#a06c18" d="M1 22h1v1h-1zM2 23h5v1h-5zM16 23h1v1h-1zM18 23h1v1h-1zM17 24h1v1h-1z"/></g></g><g id="secretApe1-b5q7b4"><g transform="translate(0 0) scale(4)"><path fill="#0c0a14" d="M5 0h7v1h-7zM3 1h2v1h-2zM12 1h2v1h-2zM14 2h1v1h-1zM2 2h1v2h-1zM15 3h1v1h-1zM1 4h1v1h-1zM17 4h1v1h-1zM16 5h1v1h-1zM20 5h2v1h-2zM17 6h1v1h-1zM0 5h1v3h-1zM22 6h1v2h-1zM18 7h1v1h-1zM1 8h2v1h-2zM19 8h1v1h-1zM23 8h1v1h-1zM18 9h1v1h-1zM20 9h1v1h-1zM22 9h1v1h-1zM24 9h1v1h-1zM2 9h1v2h-1zM17 10h1v1h-1zM25 10h1v1h-1zM23 10h1v2h-1zM3 11h1v1h-1zM16 11h1v1h-1zM1 12h2v1h-2zM5 12h11v1h-11zM18 12h1v1h-1zM22 12h2v1h-2zM7 13h1v1h-1zM15 13h1v1h-1zM17 13h1v1h-1zM22 13h1v2h-1zM16 14h2v1h-2zM14 15h1v1h-1zM17 15h1v1h-1zM21 15h1v1h-1zM12 16h1v1h-1zM17 16h4v1h-4zM8 14h1v4h-1zM11 17h1v1h-1zM17 17h1v1h-1zM27 17h3v1h-3zM9 18h1v1h-1zM16 18h1v1h-1zM21 18h3v1h-3zM26 18h1v2h-1zM8 19h1v1h-1zM15 19h1v1h-1zM24 19h1v1h-1zM20 19h1v2h-1zM7 20h1v1h-1zM14 20h1v1h-1zM7 21h14v1h-14zM0 13h1v10h-1zM25 20h2v3h-2zM18 22h1v1h-1zM30 18h1v6h-1zM7 22h1v2h-1zM15 22h1v2h-1zM1 23h1v1h-1zM19 23h1v1h-1zM26 23h2v1h-2zM2 24h6v1h-6zM16 24h1v1h-1zM18 24h1v1h-1zM26 24h4v1h-4zM7 25h1v1h-1zM17 25h1v1h-1zM26 25h1v1h-1zM8 26h18v1h-18z"/><path fill="#4a2a1c" d="M5 1h7v1h-7zM3 2h5v1h-5zM9 2h5v1h-5zM3 3h12v1h-12zM2 4h3v1h-3zM15 5h1v1h-1zM16 6h1v1h-1zM3 5h2v6h-2zM4 11h2v1h-2zM19 13h3v1h-3zM18 14h4v1h-4zM18 15h3v1h-3z"/><path fill="#7c4b2c" d="M8 2h1v1h-1zM19 12h1v1h-1zM18 13h1v1h-1z"/><path fill="#24140d" d="M5 4h12v1h-12zM6 5h2v1h-2zM10 5h2v1h-2zM6 8h1v1h-1zM17 8h1v1h-1zM7 9h9v1h-9z"/><path fill="#8a5a3e" d="M5 5h1v1h-1zM8 5h2v1h-2zM12 5h3v1h-3zM5 6h11v1h-11zM5 7h1v1h-1z"/><path fill="#a06a44" d="M1 5h1v2h-1zM1 7h2v1h-2z"/><path fill="#4a2618" d="M2 5h1v2h-1z"/><path fill="#fff3a0" d="M20 6h2v2h-2zM21 8h1v2h-1z"/><path fill="#d4a070" d="M6 7h6v1h-6zM13 7h1v1h-1zM15 7h3v1h-3zM5 8h1v1h-1zM7 8h10v1h-10zM18 8h1v1h-1zM5 9h2v1h-2zM16 9h2v1h-2zM5 10h12v1h-12zM6 11h10v1h-10z"/><path fill="#1e0e06" d="M12 7h1v1h-1zM14 7h1v1h-1z"/><path fill="#ffe14a" d="M20 8h1v1h-1zM20 10h2v2h-2zM20 12h1v1h-1z"/><path fill="#c8a020" d="M22 8h1v1h-1zM23 9h1v1h-1zM22 10h1v2h-1zM21 12h1v1h-1z"/><path fill="#f4f8ff" d="M3 12h2v1h-2zM1 13h6v1h-6zM1 14h7v1h-7zM2 15h6v1h-6zM15 15h2v1h-2zM13 16h2v1h-2zM12 17h1v1h-1zM10 18h2v1h-2zM9 19h2v1h-2zM21 19h2v1h-2zM8 20h1v1h-1zM21 20h1v2h-1zM8 22h7v1h-7zM19 22h3v1h-3z"/><path fill="#a9b6c8" d="M8 13h7v1h-7zM9 14h7v1h-7zM9 15h5v1h-5zM9 16h3v1h-3zM15 16h2v1h-2zM2 16h6v2h-6zM9 17h2v1h-2zM13 17h3v1h-3zM3 18h6v1h-6zM12 18h3v1h-3zM3 19h5v1h-5zM11 19h3v1h-3zM23 19h1v1h-1zM4 20h3v1h-3zM9 20h3v1h-3zM27 18h1v5h-1zM22 20h2v3h-2zM8 23h7v1h-7zM20 23h5v1h-5zM8 24h8v1h-8zM19 24h5v1h-5z"/><path fill="#5d6a82" d="M1 15h1v3h-1zM16 17h1v1h-1zM15 18h1v1h-1zM1 18h2v2h-2zM14 19h1v1h-1zM1 20h3v1h-3zM12 20h2v1h-2zM24 20h1v3h-1zM28 18h2v6h-2zM25 23h1v1h-1zM24 24h2v1h-2zM8 25h9v1h-9zM18 25h8v1h-8z"/><path fill="#f6c84e" d="M1 21h6v1h-6zM2 22h5v1h-5zM16 22h2v1h-2zM17 23h1v1h-1z"/><path fill="#a06c18" d="M1 22h1v1h-1zM2 23h5v1h-5zM16 23h1v1h-1zM18 23h1v1h-1zM17 24h1v1h-1z"/></g></g><radialGradient id="secretPool"><stop offset="0" stop-color="#ff9a3c" stop-opacity=".55"/><stop offset=".5" stop-color="#ff8a1e" stop-opacity=".2"/><stop offset="1" stop-color="#ff8a1e" stop-opacity="0"/></radialGradient><radialGradient id="rg1owycon"><stop offset="0" stop-color="#ffd34d" stop-opacity="0.6"/><stop offset=".45" stop-color="#ffd34d" stop-opacity="0.210"/><stop offset="1" stop-color="#ffd34d" stop-opacity="0"/></radialGradient><g id="secretFlame0-8psddw"><g transform="translate(0 0) scale(4)"><path fill="#ff8a1e" d="M7 0h1v1h-1zM8 1h1v1h-1zM6 3h1v1h-1zM7 4h1v1h-1zM9 4h2v1h-2zM9 5h1v3h-1zM7 9h2v1h-2zM6 10h2v1h-2zM11 10h1v4h-1zM11 14h2v1h-2zM11 15h3v1h-3zM5 12h1v5h-1zM13 16h1v2h-1zM4 17h2v2h-2zM4 19h1v2h-1zM13 18h2v4h-2zM3 21h2v1h-2z"/><path fill="#ffd34d" d="M8 0h1v1h-1zM7 2h2v2h-2zM8 4h1v1h-1zM10 5h2v2h-2zM11 7h1v3h-1zM9 8h1v2h-1zM8 10h1v1h-1zM6 11h3v1h-3zM10 11h1v5h-1zM10 16h3v1h-3zM6 12h2v7h-2zM5 19h3v1h-3zM11 17h2v5h-2zM5 20h2v2h-2z"/><path fill="#e8402a" d="M7 1h1v1h-1zM9 3h1v1h-1zM6 4h1v1h-1zM11 4h1v1h-1zM12 6h1v1h-1zM7 5h2v4h-2zM12 7h3v3h-3zM6 9h1v1h-1zM5 11h1v1h-1zM4 12h1v1h-1zM12 10h2v4h-2zM13 14h1v1h-1zM3 13h2v4h-2zM14 15h1v2h-1zM3 17h1v1h-1zM14 17h2v1h-2zM15 18h2v2h-2zM2 18h2v3h-2zM15 20h1v2h-1zM2 21h1v1h-1z"/><path fill="#fff6c8" d="M10 7h1v3h-1zM9 10h2v1h-2zM9 11h1v1h-1zM8 12h2v5h-2zM8 17h3v3h-3zM7 20h4v2h-4z"/></g></g><g id="secretFlame1-6vv2w6"><g transform="translate(0 0) scale(4)"><path fill="#ff8a1e" d="M11 0h1v2h-1zM9 2h3v1h-3zM10 5h1v1h-1zM7 6h1v1h-1zM5 7h2v2h-2zM10 9h2v1h-2zM12 10h1v2h-1zM7 10h1v3h-1zM6 14h1v1h-1zM5 15h2v1h-2zM4 16h2v1h-2zM12 14h2v4h-2zM3 17h3v2h-3zM12 18h3v2h-3zM3 19h2v3h-2zM13 20h2v2h-2z"/><path fill="#e8402a" d="M10 1h1v1h-1zM12 1h1v2h-1zM9 3h1v1h-1zM11 3h2v1h-2zM8 4h1v1h-1zM7 5h1v1h-1zM5 6h2v1h-2zM10 6h1v2h-1zM10 8h3v1h-3zM4 9h3v1h-3zM12 9h1v1h-1zM5 10h2v2h-2zM13 11h1v1h-1zM6 12h1v1h-1zM13 12h3v2h-3zM4 13h3v1h-3zM4 14h2v1h-2zM3 15h2v1h-2zM3 16h1v1h-1zM14 14h2v4h-2zM2 17h1v5h-1zM15 18h1v4h-1z"/><path fill="#ffd34d" d="M10 3h1v1h-1zM9 4h2v1h-2zM8 5h2v2h-2zM7 7h1v3h-1zM9 7h1v3h-1zM10 10h2v1h-2zM8 11h4v1h-4zM8 12h2v1h-2zM12 12h1v2h-1zM7 13h3v1h-3zM7 14h2v1h-2zM7 15h1v1h-1zM6 16h1v3h-1zM11 14h1v6h-1zM5 19h2v3h-2zM11 20h2v2h-2z"/><path fill="#fff6c8" d="M8 7h1v3h-1zM8 10h2v1h-2zM10 12h2v2h-2zM9 14h2v1h-2zM8 15h3v1h-3zM7 16h4v6h-4z"/></g></g><g id="secretFlame2-1vsda2"><g transform="translate(0 0) scale(4)"><path fill="#e8402a" d="M8 1h1v1h-1zM11 2h1v1h-1zM9 3h1v1h-1zM12 3h1v1h-1zM11 4h1v1h-1zM12 6h1v1h-1zM7 5h2v3h-2zM6 8h1v1h-1zM12 7h2v4h-2zM5 10h1v1h-1zM11 11h3v2h-3zM4 12h1v1h-1zM12 13h2v1h-2zM3 13h2v2h-2zM13 14h1v1h-1zM4 15h1v1h-1zM14 16h1v1h-1zM3 16h1v2h-1zM14 17h2v1h-2zM14 18h3v1h-3zM2 18h2v2h-2zM15 19h2v1h-2zM2 20h1v2h-1zM15 20h1v2h-1z"/><path fill="#ff8a1e" d="M11 1h1v1h-1zM8 2h1v1h-1zM12 2h1v1h-1zM7 4h4v1h-4zM9 5h1v3h-1zM7 8h2v1h-2zM6 9h3v1h-3zM11 9h1v2h-1zM5 11h1v2h-1zM11 13h1v1h-1zM11 14h2v1h-2zM5 15h1v1h-1zM11 15h3v1h-3zM4 16h2v3h-2zM13 16h1v3h-1zM4 19h1v1h-1zM13 19h2v3h-2zM3 20h2v2h-2z"/><path fill="#ffd34d" d="M7 0h1v3h-1zM7 3h2v1h-2zM10 5h2v2h-2zM11 7h1v2h-1zM9 8h1v1h-1zM6 10h3v1h-3zM6 11h2v2h-2zM5 13h3v2h-3zM10 10h1v6h-1zM10 16h3v2h-3zM6 15h2v4h-2zM5 19h3v1h-3zM11 18h2v4h-2zM5 20h2v2h-2z"/><path fill="#fff6c8" d="M10 7h1v2h-1zM9 9h2v1h-2zM9 10h1v1h-1zM8 11h2v7h-2zM8 18h3v2h-3zM7 20h4v2h-4z"/></g></g><g id="secretFlame3-py3bz2"><g transform="translate(0 0) scale(4)"><path fill="#ffd34d" d="M10 0h1v1h-1zM9 1h1v1h-1zM8 2h2v1h-2zM8 3h1v1h-1zM7 4h2v3h-2zM7 8h1v2h-1zM9 9h1v1h-1zM7 10h5v2h-5zM11 12h1v1h-1zM7 12h2v2h-2zM10 13h2v1h-2zM9 14h3v1h-3zM9 15h2v1h-2zM6 14h1v3h-1zM10 16h1v1h-1zM10 17h2v1h-2zM11 18h1v2h-1zM5 17h2v5h-2zM11 20h2v2h-2z"/><path fill="#ff8a1e" d="M5 1h1v1h-1zM10 1h1v1h-1zM7 3h1v1h-1zM9 3h1v1h-1zM12 3h1v1h-1zM5 4h2v4h-2zM9 7h1v2h-1zM10 9h2v1h-2zM12 10h1v4h-1zM6 12h1v2h-1zM5 14h1v1h-1zM4 15h2v1h-2zM11 15h2v2h-2zM3 16h3v1h-3zM12 17h2v2h-2zM12 19h3v1h-3zM3 17h2v5h-2zM13 20h2v2h-2z"/><path fill="#e8402a" d="M5 2h1v1h-1zM6 3h1v1h-1zM12 4h1v1h-1zM9 4h1v3h-1zM4 5h1v3h-1zM4 8h3v1h-3zM10 8h2v1h-2zM12 9h1v1h-1zM6 9h1v3h-1zM4 12h2v1h-2zM13 11h2v3h-2zM3 13h3v1h-3zM3 14h2v1h-2zM12 14h3v1h-3zM2 15h2v1h-2zM13 15h2v2h-2zM14 17h1v2h-1zM2 16h1v6h-1zM15 19h1v3h-1z"/><path fill="#fff6c8" d="M7 7h2v1h-2zM8 8h1v2h-1zM9 12h2v1h-2zM9 13h1v1h-1zM7 14h2v2h-2zM7 16h3v2h-3zM7 18h4v4h-4z"/></g></g><g id="secretChoir0-18h3laj"><g transform="translate(0 0) scale(4)"><path fill="#0c0a14" d="M5 0h2v1h-2zM9 0h2v1h-2zM4 1h1v1h-1zM11 1h1v1h-1zM5 2h6v1h-6zM4 3h1v1h-1zM11 3h1v1h-1zM3 4h1v2h-1zM12 4h1v2h-1zM3 6h10v1h-10zM3 7h1v1h-1zM12 7h1v1h-1zM3 8h10v1h-10zM3 9h1v1h-1zM12 9h1v1h-1zM4 10h1v1h-1zM6 10h1v1h-1zM9 10h1v1h-1zM11 10h1v1h-1zM2 11h3v1h-3zM7 11h2v1h-2zM11 11h3v1h-3zM1 12h1v1h-1zM5 12h2v1h-2zM9 12h2v1h-2zM14 12h1v1h-1zM3 14h1v2h-1zM12 14h1v2h-1zM3 16h2v1h-2zM11 16h2v1h-2zM2 17h2v1h-2zM12 17h2v1h-2zM7 19h2v1h-2zM0 13h1v8h-1zM15 13h1v8h-1zM2 18h1v3h-1zM13 18h1v3h-1zM4 18h1v4h-1zM11 18h1v4h-1zM1 21h2v1h-2zM7 21h2v1h-2zM13 21h2v1h-2z"/><path fill="#d9a35a" d="M5 1h2v1h-2zM9 1h2v1h-2zM5 3h6v1h-6zM4 4h8v1h-8zM4 5h1v1h-1zM11 5h1v1h-1zM4 9h1v1h-1zM11 9h1v1h-1zM2 12h3v1h-3zM7 12h2v1h-2zM11 12h3v1h-3zM1 13h2v1h-2zM4 13h8v1h-8zM13 13h2v1h-2zM5 14h2v1h-2zM9 14h2v1h-2zM1 14h1v2h-1zM14 14h1v2h-1zM6 15h1v1h-1zM9 15h1v1h-1zM1 17h1v2h-1zM14 17h1v2h-1zM5 20h2v1h-2zM9 20h2v1h-2zM5 21h1v1h-1zM10 21h1v1h-1z"/><path fill="#9c6a2c" d="M5 5h6v1h-6zM5 9h6v1h-6zM5 10h1v1h-1zM10 10h1v1h-1zM3 13h1v1h-1zM12 13h1v1h-1zM4 14h1v1h-1zM11 14h1v1h-1zM2 14h1v2h-1zM13 14h1v2h-1zM4 15h2v1h-2zM10 15h2v1h-2zM1 16h2v1h-2zM5 16h6v1h-6zM13 16h2v1h-2zM5 19h2v1h-2zM9 19h2v1h-2zM7 20h2v1h-2zM6 21h1v1h-1zM9 21h1v1h-1z"/><path fill="#5c3a18" d="M4 7h8v1h-8zM7 10h2v1h-2zM5 11h2v1h-2zM9 11h2v1h-2zM4 17h8v1h-8zM5 18h2v1h-2zM9 18h2v1h-2zM1 19h1v1h-1zM14 19h1v1h-1z"/><path fill="#1e4a5a" d="M7 14h2v2h-2zM1 20h1v1h-1zM14 20h1v1h-1z"/><path fill="#f6c84e" d="M7 18h2v1h-2z"/></g></g><g id="secretChoir1-luvrxr"><g transform="translate(0 0) scale(4)"><path fill="#0c0a14" d="M7 0h2v1h-2zM6 1h1v1h-1zM9 1h1v1h-1zM5 2h6v1h-6zM4 3h1v1h-1zM11 3h1v1h-1zM3 4h1v2h-1zM12 4h1v2h-1zM3 6h10v1h-10zM3 7h1v1h-1zM12 7h1v1h-1zM3 8h10v1h-10zM3 9h1v1h-1zM12 9h1v1h-1zM4 10h1v1h-1zM6 10h1v1h-1zM9 10h1v1h-1zM11 10h1v1h-1zM2 11h3v1h-3zM7 11h2v1h-2zM11 11h3v1h-3zM1 12h1v1h-1zM5 12h2v1h-2zM9 12h2v1h-2zM14 12h1v1h-1zM3 14h1v2h-1zM12 14h1v2h-1zM3 16h2v1h-2zM11 16h2v1h-2zM2 17h2v1h-2zM12 17h2v1h-2zM7 19h2v1h-2zM0 13h1v8h-1zM15 13h1v8h-1zM2 18h1v3h-1zM13 18h1v3h-1zM4 18h1v4h-1zM11 18h1v4h-1zM1 21h2v1h-2zM7 21h2v1h-2zM13 21h2v1h-2z"/><path fill="#1e4a5a" d="M7 1h2v1h-2zM7 14h2v2h-2zM1 20h1v1h-1zM14 20h1v1h-1z"/><path fill="#b8c4d6" d="M5 3h6v1h-6zM4 4h8v1h-8zM4 5h1v1h-1zM11 5h1v1h-1zM4 9h1v1h-1zM11 9h1v1h-1zM2 12h3v1h-3zM7 12h2v1h-2zM11 12h3v1h-3zM1 13h2v1h-2zM4 13h8v1h-8zM13 13h2v1h-2zM5 14h2v1h-2zM9 14h2v1h-2zM1 14h1v2h-1zM14 14h1v2h-1zM6 15h1v1h-1zM9 15h1v1h-1zM1 17h1v2h-1zM14 17h1v2h-1zM5 20h2v1h-2zM9 20h2v1h-2zM5 21h1v1h-1zM10 21h1v1h-1z"/><path fill="#7d8aa0" d="M5 5h6v1h-6zM5 9h6v1h-6zM5 10h1v1h-1zM10 10h1v1h-1zM3 13h1v1h-1zM12 13h1v1h-1zM4 14h1v1h-1zM11 14h1v1h-1zM2 14h1v2h-1zM13 14h1v2h-1zM4 15h2v1h-2zM10 15h2v1h-2zM1 16h2v1h-2zM5 16h6v1h-6zM13 16h2v1h-2zM5 19h2v1h-2zM9 19h2v1h-2zM7 20h2v1h-2zM6 21h1v1h-1zM9 21h1v1h-1z"/><path fill="#4a5468" d="M4 7h8v1h-8zM7 10h2v1h-2zM5 11h2v1h-2zM9 11h2v1h-2zM4 17h8v1h-8zM5 18h2v1h-2zM9 18h2v1h-2zM1 19h1v1h-1zM14 19h1v1h-1z"/><path fill="#f6c84e" d="M7 18h2v1h-2z"/></g></g><g id="secretChoir2-1dkkijm"><g transform="translate(0 0) scale(4)"><path fill="#0c0a14" d="M3 0h1v1h-1zM12 0h1v1h-1zM3 1h2v1h-2zM11 1h2v1h-2zM4 2h8v1h-8zM4 3h1v1h-1zM11 3h1v1h-1zM3 4h1v2h-1zM12 4h1v2h-1zM3 6h10v1h-10zM3 7h1v1h-1zM12 7h1v1h-1zM3 8h10v1h-10zM3 9h1v1h-1zM12 9h1v1h-1zM4 10h1v1h-1zM6 10h1v1h-1zM9 10h1v1h-1zM11 10h1v1h-1zM2 11h3v1h-3zM7 11h2v1h-2zM11 11h3v1h-3zM1 12h1v1h-1zM5 12h2v1h-2zM9 12h2v1h-2zM14 12h1v1h-1zM3 14h1v2h-1zM12 14h1v2h-1zM3 16h2v1h-2zM11 16h2v1h-2zM2 17h2v1h-2zM12 17h2v1h-2zM7 19h2v1h-2zM0 13h1v8h-1zM15 13h1v8h-1zM2 18h1v3h-1zM13 18h1v3h-1zM4 18h1v4h-1zM11 18h1v4h-1zM1 21h2v1h-2zM7 21h2v1h-2zM13 21h2v1h-2z"/><path fill="#7fd1b0" d="M5 3h6v1h-6zM4 4h8v1h-8zM4 5h1v1h-1zM11 5h1v1h-1zM4 9h1v1h-1zM11 9h1v1h-1zM2 12h3v1h-3zM7 12h2v1h-2zM11 12h3v1h-3zM1 13h2v1h-2zM4 13h8v1h-8zM13 13h2v1h-2zM5 14h2v1h-2zM9 14h2v1h-2zM1 14h1v2h-1zM14 14h1v2h-1zM6 15h1v1h-1zM9 15h1v1h-1zM1 17h1v2h-1zM14 17h1v2h-1zM5 20h2v1h-2zM9 20h2v1h-2zM5 21h1v1h-1zM10 21h1v1h-1z"/><path fill="#3f8f74" d="M5 5h6v1h-6zM5 9h6v1h-6zM5 10h1v1h-1zM10 10h1v1h-1zM3 13h1v1h-1zM12 13h1v1h-1zM4 14h1v1h-1zM11 14h1v1h-1zM2 14h1v2h-1zM13 14h1v2h-1zM4 15h2v1h-2zM10 15h2v1h-2zM1 16h2v1h-2zM5 16h6v1h-6zM13 16h2v1h-2zM5 19h2v1h-2zM9 19h2v1h-2zM7 20h2v1h-2zM6 21h1v1h-1zM9 21h1v1h-1z"/><path fill="#245446" d="M4 7h8v1h-8zM7 10h2v1h-2zM5 11h2v1h-2zM9 11h2v1h-2zM4 17h8v1h-8zM5 18h2v1h-2zM9 18h2v1h-2zM1 19h1v1h-1zM14 19h1v1h-1z"/><path fill="#1e4a5a" d="M7 14h2v2h-2zM1 20h1v1h-1zM14 20h1v1h-1z"/><path fill="#f6c84e" d="M7 18h2v1h-2z"/></g></g><radialGradient id="secretWarm" cx="452" cy="292" r="420" gradientUnits="userSpaceOnUse"><stop offset="0" stop-color="#ffb050" stop-opacity=".3"/><stop offset=".45" stop-color="#ff8a1e" stop-opacity=".12"/><stop offset="1" stop-color="#ff8a1e" stop-opacity="0"/></radialGradient><radialGradient id="secretDark" cx="452" cy="282" r="560" gradientUnits="userSpaceOnUse"><stop offset=".35" stop-color="#05041a" stop-opacity="0"/><stop offset="1" stop-color="#05041a" stop-opacity=".6"/></radialGradient><path id="g1t" d="M1 0h3v1h-3zM0 1h1v1h-1zM4 1h1v1h-1zM0 2h1v1h-1zM4 2h1v1h-1zM0 3h5v1h-5zM0 4h1v1h-1zM4 4h1v1h-1zM0 5h1v1h-1zM4 5h1v1h-1zM0 6h1v1h-1zM4 6h1v1h-1z"/><path id="g28" d="M0 0h4v1h-4zM0 1h1v1h-1zM4 1h1v1h-1zM0 2h1v1h-1zM4 2h1v1h-1zM0 3h4v1h-4zM0 4h1v1h-1zM0 5h1v1h-1zM0 6h1v1h-1z"/><path id="g1x" d="M0 0h5v1h-5zM0 1h1v1h-1zM0 2h1v1h-1zM0 3h4v1h-4zM0 4h1v1h-1zM0 5h1v1h-1zM0 6h5v1h-5z"/><path id="g20" d="M0 0h1v1h-1zM4 0h1v1h-1zM0 1h1v1h-1zM4 1h1v1h-1zM0 2h1v1h-1zM4 2h1v1h-1zM0 3h5v1h-5zM0 4h1v1h-1zM4 4h1v1h-1zM0 5h1v1h-1zM4 5h1v1h-1zM0 6h1v1h-1zM4 6h1v1h-1z"/><path id="g1w" d="M0 0h4v1h-4zM0 1h1v1h-1zM4 1h1v1h-1zM0 2h1v1h-1zM4 2h1v1h-1zM0 3h1v1h-1zM4 3h1v1h-1zM0 4h1v1h-1zM4 4h1v1h-1zM0 5h1v1h-1zM4 5h1v1h-1zM0 6h4v1h-4z"/><g id="ttjw6lu"><use href="#g1t" x="0"/><use href="#g28" x="6"/><use href="#g1x" x="12"/><use href="#g20" x="18"/><use href="#g1x" x="24"/><use href="#g1t" x="30"/><use href="#g1w" x="36"/></g><path id="g1d" d="M2 0h1v1h-1zM1 1h2v1h-2zM2 2h1v1h-1zM2 3h1v1h-1zM2 4h1v1h-1zM2 5h1v1h-1zM1 6h3v1h-3z"/><path id="g2d" d="M0 0h1v1h-1zM4 0h1v1h-1zM0 1h1v1h-1zM4 1h1v1h-1zM0 2h1v1h-1zM4 2h1v1h-1zM0 3h1v1h-1zM4 3h1v1h-1zM0 4h1v1h-1zM4 4h1v1h-1zM0 5h1v1h-1zM4 5h1v1h-1zM1 6h3v1h-3z"/><g id="t1mi5jgg"><use href="#g1d" x="0"/><use href="#g2d" x="6"/><use href="#g28" x="12"/></g><path id="g2b" d="M1 0h4v1h-4zM0 1h1v1h-1zM0 2h1v1h-1zM1 3h3v1h-3zM4 4h1v1h-1zM4 5h1v1h-1zM0 6h4v1h-4z"/><path id="g1v" d="M1 0h3v1h-3zM0 1h1v1h-1zM4 1h1v1h-1zM0 2h1v1h-1zM0 3h1v1h-1zM0 4h1v1h-1zM0 5h1v1h-1zM4 5h1v1h-1zM1 6h3v1h-3z"/><path id="g2a" d="M0 0h4v1h-4zM0 1h1v1h-1zM4 1h1v1h-1zM0 2h1v1h-1zM4 2h1v1h-1zM0 3h4v1h-4zM0 4h1v1h-1zM2 4h1v1h-1zM0 5h1v1h-1zM3 5h1v1h-1zM0 6h1v1h-1zM4 6h1v1h-1z"/><path id="g2c" d="M0 0h5v1h-5zM2 1h1v1h-1zM2 2h1v1h-1zM2 3h1v1h-1zM2 4h1v1h-1zM2 5h1v1h-1zM2 6h1v1h-1z"/><path id="g53" d="M1 3h2v1h-2zM1 4h2v1h-2z"/><path id="g1r" d="M1 0h3v1h-3zM0 1h1v1h-1zM4 1h1v1h-1zM4 2h1v1h-1zM3 3h1v1h-1zM2 4h1v1h-1zM2 6h1v1h-1z"/><g id="t108nj6l"><use href="#g2b" x="0"/><use href="#g1x" x="6"/><use href="#g1v" x="12"/><use href="#g2a" x="18"/><use href="#g1x" x="24"/><use href="#g2c" x="30"/><use href="#g53" x="42"/><use href="#g1r" x="54"/><use href="#g1r" x="60"/><use href="#g1r" x="66"/></g><g id="relic1-ooymw"><g transform="translate(0 0) scale(2)"><path fill="#2a1a10" d="M1 1h11v1h-11zM12 2h1v1h-1zM0 2h1v2h-1zM2 3h10v1h-10zM13 3h1v1h-1zM11 4h1v6h-1zM1 4h1v7h-1zM12 10h1v1h-1zM0 11h9v1h-9zM11 11h1v2h-1zM0 12h1v1h-1zM9 12h1v1h-1zM1 13h10v1h-10z"/><path fill="#f3e3b5" d="M1 2h11v1h-11zM2 4h9v1h-9zM2 5h1v1h-1zM10 5h1v1h-1zM2 6h9v1h-9zM2 7h1v1h-1zM8 7h3v1h-3zM2 8h9v1h-9zM2 9h1v1h-1zM2 10h6v1h-6zM2 12h7v1h-7z"/><path fill="#c8b088" d="M1 3h1v1h-1zM12 3h1v1h-1zM1 12h1v1h-1z"/><path fill="#8a6a4a" d="M3 5h7v1h-7zM3 7h5v1h-5zM3 9h6v1h-6z"/><path fill="#e8342c" d="M9 9h2v1h-2zM8 10h4v1h-4zM9 11h2v1h-2zM10 12h1v1h-1z"/></g></g><g id="relic2-1826ouq"><g transform="translate(0 0) scale(2)"><path fill="#14080c" d="M5 0h4v1h-4zM4 1h2v1h-2zM8 1h2v1h-2zM4 2h1v1h-1zM9 2h1v1h-1zM3 3h8v1h-8zM2 4h1v7h-1zM11 4h1v7h-1zM3 11h8v1h-8zM5 12h1v1h-1zM8 12h1v1h-1zM6 13h2v1h-2z"/><path fill="#f6c84e" d="M3 4h8v1h-8zM3 10h8v1h-8zM6 12h2v1h-2z"/><path fill="#ff3b3b" d="M5 5h4v1h-4zM5 6h1v2h-1zM8 6h1v2h-1zM3 5h1v5h-1zM10 5h1v5h-1zM5 8h4v2h-4z"/><path fill="#fff0c0" d="M6 6h2v2h-2z"/><path fill="#a01818" d="M4 5h1v5h-1zM9 5h1v5h-1z"/></g></g><g id="relic3-43pumf"><g transform="translate(0 0) scale(2)"><path fill="#0c0a14" d="M9 0h3v1h-3zM8 1h1v3h-1zM12 1h1v3h-1zM7 4h5v1h-5zM6 5h1v1h-1zM8 5h1v1h-1zM5 6h1v1h-1zM7 6h1v1h-1zM4 7h1v1h-1zM6 7h1v1h-1zM3 8h1v1h-1zM5 8h1v2h-1zM2 9h1v1h-1zM1 10h12v1h-12zM0 11h1v2h-1zM13 11h1v2h-1zM0 13h14v1h-14z"/><path fill="#ff7a3d" d="M9 1h3v1h-3zM9 2h1v1h-1zM11 2h1v1h-1zM9 3h3v1h-3z"/><path fill="#ffd0a0" d="M10 2h1v1h-1z"/><path fill="#8a5a32" d="M7 5h1v1h-1zM6 6h1v1h-1zM5 7h1v1h-1zM4 8h1v1h-1z"/><path fill="#f6c84e" d="M3 9h2v1h-2z"/><path fill="#a9b6c8" d="M1 11h12v1h-12zM1 12h1v1h-1zM12 12h1v1h-1z"/><path fill="#5d6a82" d="M2 12h10v1h-10z"/></g></g><g id="relic4-jei5fa"><g transform="translate(0 0) scale(2)"><path fill="#0c0a14" d="M5 0h4v1h-4zM4 1h1v2h-1zM9 1h1v2h-1zM3 3h3v1h-3zM8 3h3v1h-3zM2 4h1v1h-1zM6 4h2v1h-2zM11 4h1v1h-1zM1 5h1v1h-1zM4 5h2v1h-2zM8 5h2v1h-2zM12 5h1v1h-1zM3 6h1v1h-1zM10 6h1v1h-1zM2 7h1v2h-1zM11 7h1v2h-1zM0 6h1v4h-1zM13 6h1v4h-1zM3 9h1v1h-1zM10 9h1v1h-1zM1 10h1v1h-1zM4 10h2v1h-2zM8 10h2v1h-2zM12 10h1v1h-1zM2 11h1v1h-1zM6 11h2v1h-2zM11 11h1v1h-1zM3 12h8v1h-8z"/><path fill="#5ce1ff" d="M5 1h2v1h-2zM8 1h1v1h-1zM5 2h4v1h-4zM6 3h2v1h-2z"/><path fill="#ffffff" d="M7 1h1v1h-1z"/><path fill="#f6c84e" d="M3 4h3v1h-3zM8 4h3v1h-3zM2 5h2v1h-2zM10 5h2v1h-2zM1 6h2v1h-2zM11 6h1v1h-1zM1 7h1v2h-1zM1 9h2v1h-2zM2 10h2v1h-2zM3 11h3v1h-3z"/><path fill="#a06c18" d="M12 6h1v3h-1zM11 9h2v1h-2zM10 10h2v1h-2zM8 11h3v1h-3z"/></g></g><g id="relic5-16ieeuz"><g transform="translate(0 0) scale(2)"><path fill="#0c0a14" d="M3 0h5v1h-5zM2 1h1v1h-1zM8 1h1v1h-1zM1 2h1v1h-1zM9 2h1v1h-1zM10 3h1v1h-1zM0 3h1v5h-1zM11 4h1v4h-1zM1 8h1v1h-1zM10 8h1v1h-1zM2 9h1v1h-1zM9 9h2v1h-2zM3 10h6v1h-6zM10 10h1v1h-1zM9 11h1v1h-1zM11 11h1v1h-1zM10 12h1v1h-1zM12 12h1v1h-1zM11 13h2v1h-2z"/><path fill="#f6c84e" d="M3 1h5v1h-5zM2 2h1v1h-1zM8 2h1v1h-1zM9 3h1v1h-1zM1 3h1v5h-1zM10 4h1v4h-1zM2 8h1v1h-1zM9 8h1v1h-1zM3 9h6v1h-6z"/><path fill="#2e6a8a" d="M3 2h5v1h-5zM4 3h5v1h-5zM2 3h1v2h-1zM4 4h4v1h-4zM9 4h1v1h-1zM2 5h5v1h-5zM8 5h2v1h-2zM2 6h1v1h-1zM4 6h2v1h-2zM7 6h3v1h-3zM2 7h2v1h-2zM6 7h4v1h-4zM3 8h6v1h-6z"/><path fill="#d8f6ff" d="M3 3h1v2h-1z"/><path fill="#7dff8a" d="M8 4h1v1h-1zM7 5h1v1h-1zM3 6h1v1h-1zM6 6h1v1h-1zM4 7h2v1h-2z"/><path fill="#8a5a32" d="M9 10h1v1h-1zM10 11h1v1h-1zM11 12h1v1h-1z"/></g></g><g id="relic6-1f3doe3"><g transform="translate(0 0) scale(2)"><path fill="#0c0a14" d="M2 0h9v1h-9zM1 1h1v1h-1zM11 1h1v1h-1zM0 2h1v3h-1zM12 2h1v3h-1zM1 5h1v1h-1zM11 5h1v1h-1zM2 6h4v1h-4zM7 6h4v1h-4zM5 7h1v6h-1zM7 7h1v6h-1zM5 13h3v1h-3z"/><path fill="#a9b6c8" d="M2 1h9v1h-9zM2 2h2v3h-2zM5 2h3v3h-3zM9 2h2v3h-2z"/><path fill="#f4f8ff" d="M1 2h1v3h-1z"/><path fill="#f6c84e" d="M4 2h1v3h-1zM8 2h1v3h-1z"/><path fill="#5d6a82" d="M11 2h1v3h-1zM2 5h9v1h-9z"/><path fill="#8a5a32" d="M6 6h1v2h-1zM6 9h1v2h-1zM6 12h1v1h-1z"/><path fill="#f6c84e" d="M6 8h1v1h-1zM6 11h1v1h-1z"/></g></g></defs>
<rect width="900" height="512" fill="#07061a"/>
<g><rect x="0" y="44.0" width="900" height="34.1" fill="#04031a"/><rect x="0" y="77.1" width="900" height="34.1" fill="#060520"/><rect x="0" y="110.2" width="900" height="34.1" fill="#090726"/><rect x="0" y="143.3" width="900" height="34.1" fill="#0c0a2c"/><rect x="0" y="176.4" width="900" height="34.1" fill="#100c33"/><rect x="0" y="209.6" width="900" height="34.1" fill="#140f3a"/><rect x="0" y="242.7" width="900" height="34.1" fill="#191240"/><rect x="0" y="275.8" width="900" height="34.1" fill="#1f1646"/><rect x="0" y="308.9" width="900" height="34.1" fill="#26194a"/><rect x="474" y="110" width="2" height="2" fill="#d8d0ff" opacity="0.53"><animate attributeName="opacity" values="1;.2;1" dur="2.1s" repeatCount="indefinite"/></rect><rect x="751" y="110" width="2" height="2" fill="#d8d0ff" opacity="0.55"><animate attributeName="opacity" values="1;.2;1" dur="3.4s" repeatCount="indefinite"/></rect><rect x="519" y="248" width="2" height="2" fill="#d8d0ff" opacity="0.56"></rect><rect x="384" y="66" width="2" height="2" fill="#d8d0ff" opacity="0.77"><animate attributeName="opacity" values="1;.2;1" dur="4.4s" repeatCount="indefinite"/></rect><rect x="195" y="195" width="2" height="2" fill="#d8d0ff" opacity="0.57"></rect><rect x="875" y="234" width="2" height="2" fill="#d8d0ff" opacity="0.98"></rect><rect x="655" y="191" width="2" height="2" fill="#d8d0ff" opacity="0.84"><animate attributeName="opacity" values="1;.2;1" dur="4.5s" repeatCount="indefinite"/></rect><rect x="610" y="58" width="2" height="2" fill="#d8d0ff" opacity="0.87"></rect><rect x="594" y="131" width="2" height="2" fill="#d8d0ff" opacity="0.91"></rect><rect x="333" y="81" width="2" height="2" fill="#d8d0ff" opacity="0.47"></rect><rect x="863" y="250" width="2" height="2" fill="#d8d0ff" opacity="0.68"></rect><rect x="88" y="86" width="3" height="3" fill="#d8d0ff" opacity="0.73"></rect><rect x="676" y="58" width="2" height="2" fill="#d8d0ff" opacity="0.60"></rect><rect x="564" y="133" width="2" height="2" fill="#d8d0ff" opacity="0.46"></rect><rect x="255" y="88" width="2" height="2" fill="#d8d0ff" opacity="0.95"><animate attributeName="opacity" values="1;.2;1" dur="4.4s" repeatCount="indefinite"/></rect><rect x="462" y="157" width="2" height="2" fill="#d8d0ff" opacity="0.87"></rect><rect x="409" y="109" width="3" height="3" fill="#d8d0ff" opacity="0.72"><animate attributeName="opacity" values="1;.2;1" dur="2.9s" repeatCount="indefinite"/></rect><rect x="892" y="247" width="2" height="2" fill="#d8d0ff" opacity="0.63"><animate attributeName="opacity" values="1;.2;1" dur="3.9s" repeatCount="indefinite"/></rect><rect x="768" y="219" width="2" height="2" fill="#d8d0ff" opacity="0.93"></rect><rect x="542" y="126" width="2" height="2" fill="#d8d0ff" opacity="0.89"></rect><rect x="278" y="183" width="3" height="3" fill="#d8d0ff" opacity="0.65"></rect><rect x="44" y="110" width="2" height="2" fill="#d8d0ff" opacity="0.62"><animate attributeName="opacity" values="1;.2;1" dur="2.1s" repeatCount="indefinite"/></rect><rect x="265" y="81" width="2" height="2" fill="#d8d0ff" opacity="0.50"></rect><rect x="316" y="229" width="2" height="2" fill="#d8d0ff" opacity="0.46"><animate attributeName="opacity" values="1;.2;1" dur="4.1s" repeatCount="indefinite"/></rect><rect x="746" y="67" width="3" height="3" fill="#d8d0ff" opacity="0.72"></rect><rect x="151" y="64" width="2" height="2" fill="#d8d0ff" opacity="0.47"></rect><rect x="860" y="229" width="2" height="2" fill="#d8d0ff" opacity="0.82"><animate attributeName="opacity" values="1;.2;1" dur="2.2s" repeatCount="indefinite"/></rect><rect x="369" y="139" width="2" height="2" fill="#d8d0ff" opacity="0.64"></rect><rect x="388" y="87" width="2" height="2" fill="#d8d0ff" opacity="0.72"><animate attributeName="opacity" values="1;.2;1" dur="2.7s" repeatCount="indefinite"/></rect><rect x="556" y="179" width="2" height="2" fill="#d8d0ff" opacity="0.86"></rect><rect x="755" y="168" width="2" height="2" fill="#d8d0ff" opacity="0.96"><animate attributeName="opacity" values="1;.2;1" dur="3.5s" repeatCount="indefinite"/></rect><rect x="666" y="180" width="2" height="2" fill="#d8d0ff" opacity="0.65"></rect><rect x="79" y="157" width="2" height="2" fill="#d8d0ff" opacity="0.54"></rect><rect x="292" y="169" width="2" height="2" fill="#d8d0ff" opacity="0.78"></rect><rect x="8" y="199" width="2" height="2" fill="#d8d0ff" opacity="0.86"></rect><rect x="295" y="63" width="3" height="3" fill="#d8d0ff" opacity="0.75"><animate attributeName="opacity" values="1;.2;1" dur="3.4s" repeatCount="indefinite"/></rect><rect x="637" y="191" width="2" height="2" fill="#d8d0ff" opacity="0.51"></rect><rect x="101" y="64" width="2" height="2" fill="#d8d0ff" opacity="0.61"><animate attributeName="opacity" values="1;.2;1" dur="3.3s" repeatCount="indefinite"/></rect><rect x="702" y="210" width="3" height="3" fill="#d8d0ff" opacity="0.74"></rect><rect x="311" y="234" width="2" height="2" fill="#d8d0ff" opacity="0.94"></rect><rect x="868" y="178" width="2" height="2" fill="#d8d0ff" opacity="0.59"></rect><rect x="807" y="59" width="2" height="2" fill="#d8d0ff" opacity="0.78"><animate attributeName="opacity" values="1;.2;1" dur="2.4s" repeatCount="indefinite"/></rect><rect x="604" y="76" width="2" height="2" fill="#d8d0ff" opacity="0.70"></rect><rect x="431" y="163" width="2" height="2" fill="#d8d0ff" opacity="0.62"></rect><rect x="696" y="100" width="3" height="3" fill="#d8d0ff" opacity="0.78"><animate attributeName="opacity" values="1;.2;1" dur="3.5s" repeatCount="indefinite"/></rect><rect x="371" y="95" width="3" height="3" fill="#d8d0ff" opacity="0.62"><animate attributeName="opacity" values="1;.2;1" dur="4.5s" repeatCount="indefinite"/></rect><rect x="638" y="206" width="2" height="2" fill="#d8d0ff" opacity="0.66"></rect><rect x="714" y="257" width="2" height="2" fill="#d8d0ff" opacity="0.72"><animate attributeName="opacity" values="1;.2;1" dur="2.2s" repeatCount="indefinite"/></rect><rect x="341" y="176" width="2" height="2" fill="#d8d0ff" opacity="0.49"></rect><rect x="413" y="132" width="3" height="3" fill="#d8d0ff" opacity="0.68"><animate attributeName="opacity" values="1;.2;1" dur="3.8s" repeatCount="indefinite"/></rect><rect x="582" y="87" width="2" height="2" fill="#d8d0ff" opacity="0.69"><animate attributeName="opacity" values="1;.2;1" dur="3.6s" repeatCount="indefinite"/></rect><rect x="344" y="64" width="2" height="2" fill="#d8d0ff" opacity="0.58"></rect><rect x="382" y="257" width="2" height="2" fill="#d8d0ff" opacity="0.46"><animate attributeName="opacity" values="1;.2;1" dur="2.1s" repeatCount="indefinite"/></rect><rect x="670" y="221" width="2" height="2" fill="#d8d0ff" opacity="0.85"></rect><rect x="226" y="199" width="2" height="2" fill="#d8d0ff" opacity="0.80"><animate attributeName="opacity" values="1;.2;1" dur="4.2s" repeatCount="indefinite"/></rect><rect x="223" y="193" width="2" height="2" fill="#d8d0ff" opacity="0.98"></rect><rect x="66" y="121" width="3" height="3" fill="#d8d0ff" opacity="0.54"><animate attributeName="opacity" values="1;.2;1" dur="4.2s" repeatCount="indefinite"/></rect><rect x="357" y="233" width="3" height="3" fill="#d8d0ff" opacity="0.83"><animate attributeName="opacity" values="1;.2;1" dur="2.7s" repeatCount="indefinite"/></rect><rect x="839" y="87" width="3" height="3" fill="#d8d0ff" opacity="0.93"><animate attributeName="opacity" values="1;.2;1" dur="2.5s" repeatCount="indefinite"/></rect><rect x="13" y="171" width="2" height="2" fill="#d8d0ff" opacity="0.48"><animate attributeName="opacity" values="1;.2;1" dur="4.6s" repeatCount="indefinite"/></rect><rect x="878" y="138" width="2" height="2" fill="#d8d0ff" opacity="0.75"><animate attributeName="opacity" values="1;.2;1" dur="4.0s" repeatCount="indefinite"/></rect><rect x="135" y="56" width="3" height="3" fill="#d8d0ff" opacity="0.96"></rect><rect x="641" y="231" width="2" height="2" fill="#d8d0ff" opacity="0.92"></rect><rect x="838" y="229" width="2" height="2" fill="#d8d0ff" opacity="0.53"><animate attributeName="opacity" values="1;.2;1" dur="2.3s" repeatCount="indefinite"/></rect><rect x="39" y="118" width="2" height="2" fill="#d8d0ff" opacity="0.62"><animate attributeName="opacity" values="1;.2;1" dur="4.9s" repeatCount="indefinite"/></rect><rect x="533" y="145" width="2" height="2" fill="#d8d0ff" opacity="0.83"><animate attributeName="opacity" values="1;.2;1" dur="2.6s" repeatCount="indefinite"/></rect><rect x="817" y="170" width="3" height="3" fill="#d8d0ff" opacity="0.48"></rect><rect x="563" y="117" width="2" height="2" fill="#d8d0ff" opacity="0.72"></rect><rect x="822" y="139" width="2" height="2" fill="#d8d0ff" opacity="0.63"></rect><rect x="731" y="68" width="2" height="2" fill="#d8d0ff" opacity="0.57"><animate attributeName="opacity" values="1;.2;1" dur="2.7s" repeatCount="indefinite"/></rect><rect x="511" y="244" width="2" height="2" fill="#d8d0ff" opacity="0.80"></rect><rect x="274" y="68" width="2" height="2" fill="#d8d0ff" opacity="0.83"></rect><rect x="642" y="246" width="2" height="2" fill="#d8d0ff" opacity="0.79"><animate attributeName="opacity" values="1;.2;1" dur="2.4s" repeatCount="indefinite"/></rect><rect x="701" y="144" width="2" height="2" fill="#d8d0ff" opacity="0.80"><animate attributeName="opacity" values="1;.2;1" dur="3.0s" repeatCount="indefinite"/></rect><rect x="151" y="88" width="2" height="2" fill="#d8d0ff" opacity="0.68"></rect><rect x="96" y="93" width="2" height="2" fill="#d8d0ff" opacity="0.81"></rect><rect x="653" y="119" width="2" height="2" fill="#d8d0ff" opacity="0.69"><animate attributeName="opacity" values="1;.2;1" dur="4.7s" repeatCount="indefinite"/></rect><rect x="514" y="190" width="2" height="2" fill="#d8d0ff" opacity="0.56"><animate attributeName="opacity" values="1;.2;1" dur="2.1s" repeatCount="indefinite"/></rect><rect x="267" y="142" width="2" height="2" fill="#d8d0ff" opacity="0.62"><animate attributeName="opacity" values="1;.2;1" dur="2.9s" repeatCount="indefinite"/></rect><rect x="212" y="255" width="2" height="2" fill="#d8d0ff" opacity="0.48"><animate attributeName="opacity" values="1;.2;1" dur="4.9s" repeatCount="indefinite"/></rect><g><animate attributeName="opacity" values="1;.35;1" dur="3.1s" repeatCount="indefinite"/><path d="M250 80h2v14h-2zM244 86h14v2h-14z" fill="#e8e0ff" opacity=".8"/><rect x="249" y="85" width="4" height="4" fill="#fff"/></g><g><animate attributeName="opacity" values="1;.35;1" dur="2.4s" repeatCount="indefinite"/><path d="M612 64h2v14h-2zM606 70h14v2h-14z" fill="#e8e0ff" opacity=".8"/><rect x="611" y="69" width="4" height="4" fill="#fff"/></g><g><animate attributeName="opacity" values="1;.35;1" dur="3.7s" repeatCount="indefinite"/><path d="M838 144h2v14h-2zM832 150h14v2h-14z" fill="#e8e0ff" opacity=".8"/><rect x="837" y="149" width="4" height="4" fill="#fff"/></g><g opacity="0"><animate attributeName="opacity" values="0;1;0;0" keyTimes="0;.04;.1;1" dur="9s" begin="2s" repeatCount="indefinite"/><animateTransform attributeName="transform" type="translate" values="0 0;-180 70;-180 70" keyTimes="0;.1;1" dur="9s" begin="2s" repeatCount="indefinite"/><path d="M560 80h6v3h-6zM566 77h10v3h-10zM576 74h14v3h-14z" fill="#fffbe8"/></g><circle cx="108" cy="104" r="216" fill="url(#rgxht9rp)"/><g transform="translate(70 66) scale(4)"><path fill="#e4d9a8" d="M7 0h5v1h-5zM5 1h2v1h-2zM12 1h2v1h-2zM3 2h2v1h-2zM14 2h2v1h-2zM2 3h2v1h-2zM15 3h2v1h-2zM2 4h1v1h-1zM16 4h1v1h-1zM17 5h1v2h-1zM2 6h1v1h-1zM1 7h3v1h-3zM1 8h4v1h-4zM1 9h5v1h-5zM2 10h5v1h-5zM18 7h1v5h-1zM3 11h1v1h-1zM6 11h2v1h-2zM4 12h3v1h-3zM17 12h1v2h-1zM5 13h2v1h-2zM9 13h1v1h-1zM6 14h2v1h-2zM9 14h2v1h-2zM16 14h1v1h-1zM7 15h5v1h-5zM15 15h2v1h-2zM8 16h5v1h-5zM14 16h2v1h-2zM9 17h3v1h-3z"/><path fill="#fbf4d4" d="M7 1h5v1h-5zM5 2h9v1h-9zM4 3h11v1h-11zM3 4h6v1h-6zM10 4h6v1h-6zM2 5h11v1h-11zM14 5h3v1h-3zM3 6h2v1h-2zM8 6h4v1h-4zM13 6h4v1h-4zM4 7h1v1h-1zM8 7h10v1h-10zM7 8h11v1h-11zM6 9h12v1h-12zM7 10h11v1h-11zM5 11h1v1h-1zM8 11h3v1h-3zM13 11h5v1h-5zM9 12h2v1h-2zM13 12h4v1h-4zM10 13h7v1h-7zM8 14h1v1h-1zM11 14h5v1h-5zM12 15h3v1h-3zM13 16h1v1h-1z"/><path fill="#a99b70" d="M9 4h1v1h-1zM13 5h1v1h-1zM12 6h1v1h-1zM5 6h3v2h-3zM5 8h2v1h-2zM4 11h1v1h-1zM11 11h2v2h-2zM7 12h2v2h-2z"/><path fill="#c1b285" d="M1 5h1v2h-1zM0 7h1v3h-1zM0 10h2v1h-2zM0 11h3v1h-3zM1 12h3v1h-3zM1 13h4v1h-4zM2 14h4v1h-4zM2 15h5v1h-5zM3 16h5v1h-5zM5 17h4v1h-4zM12 17h2v1h-2zM7 18h5v1h-5z"/></g><path d="M0 270h18V342h-18zM18 276h24V342h-24zM42 282h24V342h-24zM66 276h30V342h-30zM96 270h24V342h-24zM120 264h108V342h-108zM228 258h30V342h-30zM258 252h24V342h-24zM282 246h60V342h-60zM342 252h24V342h-24zM366 258h18V342h-18zM384 264h18V342h-18zM402 270h138V342h-138zM540 276h60V342h-60zM600 270h18V342h-18zM618 264h18V342h-18zM636 258h18V342h-18zM654 252h24V342h-24zM678 246h30V342h-30zM708 252h42V342h-42zM750 258h60V342h-60zM810 252h42V342h-42zM852 258h30V342h-30zM882 264h18V342h-18z" fill="#120e2a"/><g transform="translate(560 0)"><path d="M0 288h8V342h-8zM8 280h4V342h-4zM12 276h4V342h-4zM16 272h4V342h-4zM20 268h4V342h-4zM24 264h4V342h-4zM28 260h8V342h-8zM36 256h4V342h-4zM40 252h4V342h-4zM44 248h8V342h-8zM52 244h8V342h-8zM60 240h8V342h-8zM68 236h8V342h-8zM76 232h12V342h-12zM88 228h8V342h-8zM96 224h4V342h-4zM100 228h4V342h-4zM104 224h4V342h-4zM108 228h4V342h-4zM112 224h4V342h-4zM116 228h28V342h-28zM144 232h8V342h-8zM152 236h8V342h-8zM160 240h8V342h-8zM168 244h8V342h-8zM176 248h4V342h-4zM180 252h8V342h-8zM188 256h8V342h-8zM196 264h8V342h-8zM204 272h8V342h-8zM212 276h4V342h-4zM216 280h4V342h-4zM220 284h4V342h-4z" fill="#0e0b22"/></g><rect x="620" y="234" width="6" height="14" fill="#0e0b22"/><rect x="618" y="237" width="10" height="3" fill="#0e0b22"/><rect x="642" y="224" width="6" height="16" fill="#0e0b22"/><rect x="640" y="227" width="10" height="3" fill="#0e0b22"/><rect x="726" y="222" width="6" height="14" fill="#0e0b22"/><rect x="724" y="225" width="10" height="3" fill="#0e0b22"/><rect x="748" y="228" width="6" height="16" fill="#0e0b22"/><rect x="746" y="231" width="10" height="3" fill="#0e0b22"/><g transform="translate(672 240) scale(4)"><path fill="#06050f" d="M2 0h4v1h-4zM1 1h1v1h-1zM6 1h1v1h-1zM0 2h1v4h-1zM7 2h1v4h-1z"/><path fill="#1c1736" d="M2 1h4v1h-4zM1 2h6v1h-6zM1 3h2v1h-2zM5 3h2v1h-2zM1 4h6v2h-6z"/><path fill="#5a4a2a" d="M3 3h2v1h-2z"/></g><path d="M0 306h54V342h-54zM54 300h18V342h-18zM72 294h18V342h-18zM90 288h36V342h-36zM126 294h30V342h-30zM156 300h90V342h-90zM246 306h24V342h-24zM270 312h42V342h-42zM312 306h18V342h-18zM330 300h24V342h-24zM354 294h150V342h-150zM504 300h18V342h-18zM522 306h18V342h-18zM540 312h36V342h-36zM576 306h30V342h-30zM606 300h90V342h-90zM696 294h24V342h-24zM720 288h42V342h-42zM762 294h18V342h-18zM780 300h24V342h-24zM804 306h96V342h-96z" fill="#0b0920"/><rect x="24" y="316" width="14" height="18" fill="#0b0920"/><rect x="26" y="312" width="10" height="4" fill="#0b0920"/><rect x="60" y="312" width="14" height="22" fill="#0b0920"/><rect x="62" y="308" width="10" height="4" fill="#0b0920"/><rect x="520" y="318" width="14" height="16" fill="#0b0920"/><rect x="522" y="314" width="10" height="4" fill="#0b0920"/><rect x="856" y="314" width="14" height="20" fill="#0b0920"/><rect x="858" y="310" width="10" height="4" fill="#0b0920"/><rect x="0" y="342" width="900" height="60" fill="#15121a"/><path d="M0 350h18v4h-12zM34 350h17v4h-12zM71 350h13v4h-12zM110 350h18v4h-12zM149 350h14v4h-12zM182 350h15v4h-12zM221 350h17v4h-12zM260 350h15v4h-12zM294 350h18v4h-12zM326 350h18v4h-12zM362 350h17v4h-12zM395 350h17v4h-12zM426 350h15v4h-12zM460 350h13v4h-12zM495 350h14v4h-12zM535 350h20v4h-12zM571 350h14v4h-12zM603 350h19v4h-12zM635 350h18v4h-12zM671 350h15v4h-12zM709 350h13v4h-12zM740 350h20v4h-12zM777 350h19v4h-12zM813 350h20v4h-12zM843 350h13v4h-12zM876 350h20v4h-12zM14 359h12v4h-12zM46 359h16v4h-12zM82 359h13v4h-12zM114 359h16v4h-12zM145 359h16v4h-12zM175 359h16v4h-12zM212 359h17v4h-12zM251 359h14v4h-12zM290 359h17v4h-12zM327 359h20v4h-12zM358 359h14v4h-12zM393 359h18v4h-12zM429 359h18v4h-12zM469 359h19v4h-12zM501 359h13v4h-12zM538 359h14v4h-12zM576 359h15v4h-12zM610 359h14v4h-12zM643 359h19v4h-12zM682 359h20v4h-12zM715 359h14v4h-12zM753 359h20v4h-12zM790 359h14v4h-12zM823 359h17v4h-12zM858 359h18v4h-12zM893 359h14v4h-12zM0 368h18v4h-12zM38 368h18v4h-12zM75 368h17v4h-12zM105 368h18v4h-12zM145 368h13v4h-12zM180 368h15v4h-12zM214 368h13v4h-12zM247 368h14v4h-12zM279 368h13v4h-12zM310 368h13v4h-12zM343 368h16v4h-12zM376 368h13v4h-12zM413 368h13v4h-12zM444 368h13v4h-12zM475 368h17v4h-12zM508 368h16v4h-12zM539 368h17v4h-12zM577 368h19v4h-12zM611 368h16v4h-12zM647 368h13v4h-12zM686 368h16v4h-12zM718 368h16v4h-12zM748 368h13v4h-12zM784 368h17v4h-12zM816 368h18v4h-12zM853 368h19v4h-12zM886 368h17v4h-12zM14 377h18v4h-12zM53 377h18v4h-12zM87 377h19v4h-12zM124 377h18v4h-12zM164 377h20v4h-12zM195 377h17v4h-12zM235 377h20v4h-12zM267 377h12v4h-12zM305 377h14v4h-12zM341 377h19v4h-12zM372 377h14v4h-12zM410 377h13v4h-12zM441 377h19v4h-12zM479 377h18v4h-12zM514 377h16v4h-12zM551 377h13v4h-12zM588 377h13v4h-12zM619 377h18v4h-12zM656 377h20v4h-12zM688 377h17v4h-12zM719 377h14v4h-12zM753 377h19v4h-12zM788 377h16v4h-12zM825 377h15v4h-12zM858 377h13v4h-12zM889 377h13v4h-12z" fill="#221c26"/><rect x="0" y="342" width="900" height="4" fill="#1d3a1e"/><path d="M0 342h4v3h-4zM8 341h4v4h-4zM12 343h4v2h-4zM20 343h4v2h-4zM24 340h4v5h-4zM32 340h4v5h-4zM40 341h4v4h-4zM44 337h4v8h-4zM48 341h4v4h-4zM52 343h4v2h-4zM56 340h4v5h-4zM64 341h4v4h-4zM68 338h4v7h-4zM76 340h4v5h-4zM92 340h4v5h-4zM104 336h4v9h-4zM108 343h4v2h-4zM112 343h4v2h-4zM120 340h4v5h-4zM132 343h4v2h-4zM136 342h4v3h-4zM152 343h4v2h-4zM160 341h4v4h-4zM164 339h4v6h-4zM168 342h4v3h-4zM172 343h4v2h-4zM192 335h4v10h-4zM200 342h4v3h-4zM204 342h4v3h-4zM208 342h4v3h-4zM220 342h4v3h-4zM224 339h4v6h-4zM232 335h4v10h-4zM256 339h4v6h-4zM260 336h4v9h-4zM276 337h4v8h-4zM280 342h4v3h-4zM292 340h4v5h-4zM300 342h4v3h-4zM304 341h4v4h-4zM316 338h4v7h-4zM320 343h4v2h-4zM328 341h4v4h-4zM340 337h4v8h-4zM344 342h4v3h-4zM352 340h4v5h-4zM360 343h4v2h-4zM364 338h4v7h-4zM524 343h4v2h-4zM532 338h4v7h-4zM536 337h4v8h-4zM544 339h4v6h-4zM548 341h4v4h-4zM560 343h4v2h-4zM576 336h4v9h-4zM584 342h4v3h-4zM592 340h4v5h-4zM596 340h4v5h-4zM600 335h4v10h-4zM604 340h4v5h-4zM612 338h4v7h-4zM624 336h4v9h-4zM628 343h4v2h-4zM636 341h4v4h-4zM640 339h4v6h-4zM644 338h4v7h-4zM648 338h4v7h-4zM652 341h4v4h-4zM656 343h4v2h-4zM664 343h4v2h-4zM668 343h4v2h-4zM672 341h4v4h-4zM676 343h4v2h-4zM684 343h4v2h-4zM688 341h4v4h-4zM704 341h4v4h-4zM728 343h4v2h-4zM732 334h4v11h-4zM744 343h4v2h-4zM748 342h4v3h-4zM760 343h4v2h-4zM784 343h4v2h-4zM792 338h4v7h-4zM796 341h4v4h-4zM812 336h4v9h-4zM816 343h4v2h-4zM844 339h4v6h-4zM856 340h4v5h-4zM868 340h4v5h-4zM884 343h4v2h-4zM888 341h4v4h-4zM896 343h4v2h-4z" fill="#1a3a1c"/><path d="M4 341h4v4h-4zM16 342h4v3h-4zM28 343h4v2h-4zM36 338h4v7h-4zM60 343h4v2h-4zM72 342h4v3h-4zM80 342h4v3h-4zM84 339h4v6h-4zM88 336h4v9h-4zM96 342h4v3h-4zM100 341h4v4h-4zM116 343h4v2h-4zM124 343h4v2h-4zM128 340h4v5h-4zM140 340h4v5h-4zM144 342h4v3h-4zM148 342h4v3h-4zM156 342h4v3h-4zM176 337h4v8h-4zM180 342h4v3h-4zM184 341h4v4h-4zM188 342h4v3h-4zM196 341h4v4h-4zM212 338h4v7h-4zM216 342h4v3h-4zM228 343h4v2h-4zM236 340h4v5h-4zM240 343h4v2h-4zM244 338h4v7h-4zM248 341h4v4h-4zM252 341h4v4h-4zM264 341h4v4h-4zM268 333h4v12h-4zM272 337h4v8h-4zM284 341h4v4h-4zM288 343h4v2h-4zM296 343h4v2h-4zM308 339h4v6h-4zM312 337h4v8h-4zM324 341h4v4h-4zM332 338h4v7h-4zM336 337h4v8h-4zM348 342h4v3h-4zM356 339h4v6h-4zM368 343h4v2h-4zM372 342h4v3h-4zM376 343h4v2h-4zM380 342h4v3h-4zM528 340h4v5h-4zM540 342h4v3h-4zM552 338h4v7h-4zM556 343h4v2h-4zM564 343h4v2h-4zM568 338h4v7h-4zM572 342h4v3h-4zM580 338h4v7h-4zM588 339h4v6h-4zM608 341h4v4h-4zM616 342h4v3h-4zM620 338h4v7h-4zM632 343h4v2h-4zM660 342h4v3h-4zM680 340h4v5h-4zM692 343h4v2h-4zM696 338h4v7h-4zM700 343h4v2h-4zM708 342h4v3h-4zM712 343h4v2h-4zM716 335h4v10h-4zM720 342h4v3h-4zM724 343h4v2h-4zM736 337h4v8h-4zM740 339h4v6h-4zM752 335h4v10h-4zM756 342h4v3h-4zM764 337h4v8h-4zM768 342h4v3h-4zM772 337h4v8h-4zM776 341h4v4h-4zM780 342h4v3h-4zM788 342h4v3h-4zM800 341h4v4h-4zM804 343h4v2h-4zM808 343h4v2h-4zM820 340h4v5h-4zM824 334h4v11h-4zM828 341h4v4h-4zM832 340h4v5h-4zM836 343h4v2h-4zM840 342h4v3h-4zM848 342h4v3h-4zM852 343h4v2h-4zM860 341h4v4h-4zM864 342h4v3h-4zM872 340h4v5h-4zM876 338h4v7h-4zM880 341h4v4h-4zM892 342h4v3h-4z" fill="#2a5226"/><g><g opacity="0.9"><animateTransform attributeName="transform" type="translate" values="0 0;18 -18;22 -36" dur="6.1s" begin="-2.4s" repeatCount="indefinite"/><animate attributeName="opacity" values="0.9;0.9;0" dur="6.1s" begin="-2.4s" repeatCount="indefinite"/><rect x="415" y="247" width="3" height="3" fill="#e8ff8a"/><rect x="510" y="273" width="3" height="3" fill="#ffe14a"/></g><g opacity="0.9"><animateTransform attributeName="transform" type="translate" values="0 0;9 -18;22 -36" dur="6.9s" begin="-2.4s" repeatCount="indefinite"/><animate attributeName="opacity" values="0.9;0.9;0" dur="6.9s" begin="-2.4s" repeatCount="indefinite"/><rect x="767" y="296" width="3" height="3" fill="#e8ff8a"/><rect x="219" y="222" width="3" height="3" fill="#ffe14a"/></g><g opacity="0.9"><animateTransform attributeName="transform" type="translate" values="0 0;5 -18;22 -36" dur="4.9s" begin="-3.2s" repeatCount="indefinite"/><animate attributeName="opacity" values="0.9;0.9;0" dur="4.9s" begin="-3.2s" repeatCount="indefinite"/><rect x="32" y="288" width="3" height="3" fill="#e8ff8a"/><rect x="79" y="279" width="3" height="3" fill="#ffe14a"/></g><g opacity="0.9"><animateTransform attributeName="transform" type="translate" values="0 0;12 -18;22 -36" dur="5.0s" begin="-2.8s" repeatCount="indefinite"/><animate attributeName="opacity" values="0.9;0.9;0" dur="5.0s" begin="-2.8s" repeatCount="indefinite"/><rect x="408" y="286" width="3" height="3" fill="#e8ff8a"/><rect x="119" y="297" width="3" height="3" fill="#ffe14a"/></g><g opacity="0.9"><animateTransform attributeName="transform" type="translate" values="0 0;14 -18;22 -36" dur="5.1s" begin="-4.5s" repeatCount="indefinite"/><animate attributeName="opacity" values="0.9;0.9;0" dur="5.1s" begin="-4.5s" repeatCount="indefinite"/><rect x="424" y="307" width="3" height="3" fill="#e8ff8a"/><rect x="528" y="296" width="3" height="3" fill="#ffe14a"/></g><g opacity="0.9"><animateTransform attributeName="transform" type="translate" values="0 0;14 -18;22 -36" dur="7.6s" begin="-5.1s" repeatCount="indefinite"/><animate attributeName="opacity" values="0.9;0.9;0" dur="7.6s" begin="-5.1s" repeatCount="indefinite"/><rect x="303" y="311" width="3" height="3" fill="#e8ff8a"/><rect x="412" y="255" width="3" height="3" fill="#ffe14a"/></g><g opacity="0.9"><animateTransform attributeName="transform" type="translate" values="0 0;15 -18;22 -36" dur="5.0s" begin="-3.7s" repeatCount="indefinite"/><animate attributeName="opacity" values="0.9;0.9;0" dur="5.0s" begin="-3.7s" repeatCount="indefinite"/><rect x="136" y="265" width="3" height="3" fill="#e8ff8a"/><rect x="563" y="213" width="3" height="3" fill="#ffe14a"/></g><g opacity="0.9"><animateTransform attributeName="transform" type="translate" values="0 0;12 -18;22 -36" dur="6.6s" begin="-3.0s" repeatCount="indefinite"/><animate attributeName="opacity" values="0.9;0.9;0" dur="6.6s" begin="-3.0s" repeatCount="indefinite"/><rect x="367" y="295" width="3" height="3" fill="#e8ff8a"/><rect x="788" y="219" width="3" height="3" fill="#ffe14a"/></g></g><g><animateTransform attributeName="transform" type="translate" values="0 0;0 2;0 0" dur="3.2s" repeatCount="indefinite" calcMode="spline" keySplines=".45 0 .55 1;.45 0 .55 1"/><use href="#secretBrakka0-17ukxx3" x="40" y="248"><animate attributeName="visibility" dur="3.20s" repeatCount="indefinite" calcMode="discrete" values="visible;hidden"/></use><use href="#secretBrakka1-14o090f" x="40" y="248" visibility="hidden"><animate attributeName="visibility" dur="3.20s" repeatCount="indefinite" calcMode="discrete" values="hidden;visible"/></use><g transform="translate(114 300) scale(4)"><path fill="#fffbe8" d="M1 0h4v1h-4zM0 1h6v1h-6zM1 2h4v1h-4z"/><path fill="#2a1a10" d="M5 2h3v1h-3zM5 3h1v2h-1zM7 3h1v2h-1zM5 5h3v1h-3zM0 2h1v5h-1zM5 6h1v1h-1zM0 7h6v1h-6z"/><path fill="#e8a030" d="M1 3h4v1h-4zM1 4h1v2h-1zM3 4h2v2h-2zM1 6h4v1h-4z"/><path fill="#ffd870" d="M2 4h1v2h-1z"/></g></g><g transform="translate(92 298)"><circle r="7" fill="#cfe8ff" fill-opacity=".55" stroke="#e8f4ff" stroke-width="2"><animate attributeName="r" values="3;9;3" dur="3.2s" repeatCount="indefinite"/></circle><rect x="-3" y="-4" width="3" height="3" fill="#fff"/></g><g><animateTransform attributeName="transform" type="translate" values="0 0;10 -20;4 -42" dur="3.2s" begin="0s" repeatCount="indefinite"/><animate attributeName="opacity" values="1;1;0" dur="3.2s" begin="0s" repeatCount="indefinite"/><use href="#t1elx4b3" transform="translate(112 240) scale(2)" fill="#1a1430"/><use href="#t1elx4b3" transform="translate(110 238) scale(2)" fill="#e8e0ff"/></g><g><animateTransform attributeName="transform" type="translate" values="0 0;10 -20;4 -42" dur="3.2s" begin="-1.1s" repeatCount="indefinite"/><animate attributeName="opacity" values="1;1;0" dur="3.2s" begin="-1.1s" repeatCount="indefinite"/><use href="#t1elx4b3" transform="translate(123 235) scale(3)" fill="#1a1430"/><use href="#t1elx4b3" transform="translate(120 232) scale(3)" fill="#e8e0ff"/></g><g><animateTransform attributeName="transform" type="translate" values="0 0;10 -20;4 -42" dur="3.2s" begin="-2.2s" repeatCount="indefinite"/><animate attributeName="opacity" values="1;1;0" dur="3.2s" begin="-2.2s" repeatCount="indefinite"/><use href="#t1elx4b3" transform="translate(134 226) scale(2)" fill="#1a1430"/><use href="#t1elx4b3" transform="translate(132 224) scale(2)" fill="#e8e0ff"/></g><g><animateTransform attributeName="transform" type="translate" values="0 0;0 -6;0 0" dur="4s" repeatCount="indefinite" calcMode="spline" keySplines=".45 0 .55 1;.45 0 .55 1"/><g><path d="M292 96h8v8h-8zM290 90h8v8h-8zM290 86h8v8h-8zM288 82h8v8h-8zM286 78h8v8h-8zM284 76h8v8h-8zM282 76h8v8h-8zM280 76h8v8h-8zM278 76h8v8h-8zM276 78h8v8h-8zM274 82h8v8h-8zM270 86h8v8h-8zM268 90h8v8h-8z" fill="#12061a"/><path d="M294 98h4v4h-4zM292 92h4v4h-4zM292 88h4v4h-4zM290 84h4v4h-4zM288 80h4v4h-4zM286 78h4v4h-4zM284 78h4v4h-4zM282 78h4v4h-4zM280 78h4v4h-4zM278 80h4v4h-4zM276 84h4v4h-4zM272 88h4v4h-4zM270 92h4v4h-4z" fill="#7a3fa8"/><rect x="266" y="94" width="12" height="12" fill="#12061a"/><rect x="268" y="96" width="8" height="8" fill="#3a2a4a"/><rect x="271" y="99" width="2" height="4" fill="#8a7a9a"/><path d="M306 96h8v8h-8zM306 88h8v8h-8zM306 82h8v8h-8zM306 78h8v8h-8zM304 74h8v8h-8zM304 70h8v8h-8zM302 68h8v8h-8zM302 68h8v8h-8zM300 68h8v8h-8zM298 68h8v8h-8zM296 70h8v8h-8zM294 74h8v8h-8zM292 78h8v8h-8z" fill="#12061a"/><path d="M308 98h4v4h-4zM308 90h4v4h-4zM308 84h4v4h-4zM308 80h4v4h-4zM306 76h4v4h-4zM306 72h4v4h-4zM304 70h4v4h-4zM304 70h4v4h-4zM302 70h4v4h-4zM300 70h4v4h-4zM298 72h4v4h-4zM296 76h4v4h-4zM294 80h4v4h-4z" fill="#7a3fa8"/><rect x="290" y="82" width="12" height="12" fill="#12061a"/><rect x="292" y="84" width="8" height="8" fill="#3a2a4a"/><rect x="295" y="87" width="2" height="4" fill="#8a7a9a"/><path d="M322 96h8v8h-8zM322 88h8v8h-8zM324 82h8v8h-8zM324 78h8v8h-8zM326 74h8v8h-8zM328 70h8v8h-8zM328 68h8v8h-8zM330 68h8v8h-8zM332 68h8v8h-8zM334 68h8v8h-8zM336 70h8v8h-8zM338 74h8v8h-8zM340 78h8v8h-8z" fill="#12061a"/><path d="M324 98h4v4h-4zM324 90h4v4h-4zM326 84h4v4h-4zM326 80h4v4h-4zM328 76h4v4h-4zM330 72h4v4h-4zM330 70h4v4h-4zM332 70h4v4h-4zM334 70h4v4h-4zM336 70h4v4h-4zM338 72h4v4h-4zM340 76h4v4h-4zM342 80h4v4h-4z" fill="#7a3fa8"/><rect x="338" y="82" width="12" height="12" fill="#12061a"/><rect x="340" y="84" width="8" height="8" fill="#3a2a4a"/><rect x="343" y="87" width="2" height="4" fill="#8a7a9a"/><path d="M336 96h8v8h-8zM338 90h8v8h-8zM340 86h8v8h-8zM342 82h8v8h-8zM344 78h8v8h-8zM346 76h8v8h-8zM348 76h8v8h-8zM350 76h8v8h-8zM352 76h8v8h-8zM356 78h8v8h-8zM358 82h8v8h-8zM360 86h8v8h-8zM362 90h8v8h-8z" fill="#12061a"/><path d="M338 98h4v4h-4zM340 92h4v4h-4zM342 88h4v4h-4zM344 84h4v4h-4zM346 80h4v4h-4zM348 78h4v4h-4zM350 78h4v4h-4zM352 78h4v4h-4zM354 78h4v4h-4zM358 80h4v4h-4zM360 84h4v4h-4zM362 88h4v4h-4zM364 92h4v4h-4z" fill="#7a3fa8"/><rect x="360" y="94" width="12" height="12" fill="#12061a"/><rect x="362" y="96" width="8" height="8" fill="#3a2a4a"/><rect x="365" y="99" width="2" height="4" fill="#8a7a9a"/><g transform="translate(278 88) scale(4)"><path fill="#12061a" d="M7 0h6v1h-6zM5 1h4v1h-4zM11 1h4v1h-4zM3 2h3v1h-3zM14 2h3v1h-3zM2 3h2v1h-2zM16 3h2v1h-2zM2 4h1v1h-1zM17 4h1v1h-1zM1 5h2v1h-2zM17 5h2v1h-2zM1 6h1v1h-1zM18 6h1v1h-1zM0 7h2v2h-2zM18 7h2v2h-2zM4 9h2v1h-2zM14 9h2v1h-2zM0 9h1v2h-1zM19 9h1v2h-1zM5 10h3v1h-3zM12 10h3v1h-3zM7 11h6v1h-6zM0 11h2v2h-2zM18 11h2v2h-2zM1 13h1v1h-1zM18 13h1v1h-1zM1 14h2v1h-2zM17 14h2v1h-2zM2 15h1v1h-1zM8 15h4v1h-4zM17 15h1v1h-1zM2 16h2v1h-2zM16 16h2v1h-2zM3 17h3v1h-3zM14 17h3v1h-3zM5 18h4v1h-4zM11 18h4v1h-4zM7 19h6v1h-6z"/><path fill="#9b3fd1" d="M9 1h2v1h-2zM7 2h7v1h-7zM7 3h9v1h-9zM7 4h10v2h-10zM13 6h5v1h-5zM2 7h3v2h-3zM15 7h3v2h-3zM1 9h3v1h-3zM16 9h2v1h-2zM1 10h4v1h-4zM15 10h1v1h-1zM2 11h5v1h-5zM13 11h2v1h-2zM2 12h13v1h-13zM2 13h12v1h-12zM3 14h6v1h-6zM11 14h2v1h-2zM3 15h5v1h-5zM4 16h6v1h-6zM6 17h4v1h-4z"/><path fill="#c88af0" d="M6 2h1v1h-1zM4 3h3v1h-3zM3 4h4v2h-4zM2 6h5v1h-5z"/><path fill="#b466e6" d="M7 6h6v1h-6zM5 7h10v2h-10zM6 9h8v1h-8zM8 10h4v1h-4z"/><path fill="#6a2196" d="M18 9h1v1h-1zM16 10h3v1h-3zM15 11h3v2h-3zM14 13h4v1h-4zM9 14h2v1h-2zM13 14h4v1h-4zM12 15h5v1h-5zM10 16h6v1h-6zM10 17h4v1h-4zM9 18h2v1h-2z"/></g></g></g><g><animateTransform attributeName="transform" type="translate" values="0 0;10 -20;4 -42" dur="3.6s" begin="-0.5s" repeatCount="indefinite"/><animate attributeName="opacity" values="1;1;0" dur="3.6s" begin="-0.5s" repeatCount="indefinite"/><use href="#t1elx4b3" transform="translate(350 94) scale(2)" fill="#1a1430"/><use href="#t1elx4b3" transform="translate(348 92) scale(2)" fill="#e8c8ff"/></g><use href="#tombRip-wbsav0" x="180" y="248"/><g transform="translate(130 304) scale(4)"><path fill="#8e1a1a" d="M4 0h1v1h-1zM7 0h1v1h-1zM3 1h1v1h-1zM8 1h1v1h-1z"/><path fill="#e8342c" d="M5 0h2v1h-2zM4 1h4v1h-4z"/><path fill="#0c0a14" d="M3 2h7v1h-7zM2 3h1v1h-1zM10 3h1v1h-1zM11 4h1v2h-1zM10 6h2v1h-2zM4 6h1v2h-1zM10 7h1v1h-1zM5 8h5v1h-5zM1 4h1v6h-1zM11 8h1v2h-1zM2 10h9v1h-9z"/><path fill="#f4f8ff" d="M3 3h4v1h-4zM2 4h3v1h-3zM2 5h1v4h-1z"/><path fill="#a9b6c8" d="M7 3h2v1h-2zM5 4h5v1h-5zM3 6h1v2h-1zM3 8h2v1h-2zM3 9h7v1h-7z"/><path fill="#5d6a82" d="M9 3h1v1h-1zM10 4h1v1h-1zM10 8h1v2h-1zM2 9h1v1h-1z"/><path fill="#f6c84e" d="M3 5h7v1h-7z"/><path fill="#a06c18" d="M10 5h1v1h-1z"/><path fill="#24140d" d="M5 6h5v2h-5z"/></g><use href="#secretApe0-9t5liz" x="206" y="240"><animate attributeName="visibility" dur="4.20s" repeatCount="indefinite" calcMode="discrete" values="visible;hidden;hidden;hidden;hidden;hidden;hidden"/></use><use href="#secretApe0-9t5liz" x="206" y="240" visibility="hidden"><animate attributeName="visibility" dur="4.20s" repeatCount="indefinite" calcMode="discrete" values="hidden;visible;hidden;hidden;hidden;hidden;hidden"/></use><use href="#secretApe0-9t5liz" x="206" y="240" visibility="hidden"><animate attributeName="visibility" dur="4.20s" repeatCount="indefinite" calcMode="discrete" values="hidden;hidden;visible;hidden;hidden;hidden;hidden"/></use><use href="#secretApe0-9t5liz" x="206" y="240" visibility="hidden"><animate attributeName="visibility" dur="4.20s" repeatCount="indefinite" calcMode="discrete" values="hidden;hidden;hidden;visible;hidden;hidden;hidden"/></use><use href="#secretApe0-9t5liz" x="206" y="240" visibility="hidden"><animate attributeName="visibility" dur="4.20s" repeatCount="indefinite" calcMode="discrete" values="hidden;hidden;hidden;hidden;visible;hidden;hidden"/></use><use href="#secretApe0-9t5liz" x="206" y="240" visibility="hidden"><animate attributeName="visibility" dur="4.20s" repeatCount="indefinite" calcMode="discrete" values="hidden;hidden;hidden;hidden;hidden;visible;hidden"/></use><use href="#secretApe1-b5q7b4" x="206" y="240" visibility="hidden"><animate attributeName="visibility" dur="4.20s" repeatCount="indefinite" calcMode="discrete" values="hidden;hidden;hidden;hidden;hidden;hidden;visible"/></use><g transform="translate(336 356) scale(3)"><path fill="#ffe14a" d="M1 0h1v2h-1zM5 0h1v2h-1zM2 2h3v1h-3z"/><path fill="#5a4a10" d="M0 1h1v1h-1zM6 1h1v1h-1zM1 2h1v1h-1zM5 2h1v1h-1zM2 3h3v1h-3z"/><path fill="#c8a020" d="M2 1h1v1h-1zM4 1h1v1h-1z"/></g><g transform="translate(300 368) scale(3)"><path fill="#e8c84a" d="M1 0h1v2h-1zM5 0h1v2h-1zM2 2h3v1h-3z"/><path fill="#5a4a10" d="M0 1h1v1h-1zM6 1h1v1h-1zM1 2h1v1h-1zM5 2h1v1h-1zM2 3h3v1h-3z"/><path fill="#a88a20" d="M2 1h1v1h-1zM4 1h1v1h-1z"/></g><ellipse cx="452" cy="348" rx="300" ry="34" fill="url(#secretPool)"><animate attributeName="opacity" values="1;.8;.95;.75;1" dur="1.4s" repeatCount="indefinite"/></ellipse><g transform="translate(406 336) scale(4)"><path fill="#120e1a" d="M1 0h4v1h-4zM0 1h1v2h-1zM5 1h1v2h-1zM1 3h4v1h-4z"/><path fill="#b48a7a" d="M1 1h2v1h-2zM1 2h1v1h-1z"/><path fill="#7a6070" d="M3 1h2v1h-2zM2 2h2v1h-2z"/><path fill="#4a3a4a" d="M4 2h1v1h-1z"/></g><g transform="translate(428 336) scale(4)"><path fill="#120e1a" d="M1 0h4v1h-4zM0 1h1v2h-1zM5 1h1v2h-1zM1 3h4v1h-4z"/><path fill="#b48a7a" d="M1 1h2v1h-2zM1 2h1v1h-1z"/><path fill="#7a6070" d="M3 1h2v1h-2zM2 2h2v1h-2z"/><path fill="#4a3a4a" d="M4 2h1v1h-1z"/></g><g transform="translate(450 336) scale(4)"><path fill="#120e1a" d="M1 0h4v1h-4zM0 1h1v2h-1zM5 1h1v2h-1zM1 3h4v1h-4z"/><path fill="#b48a7a" d="M1 1h2v1h-2zM1 2h1v1h-1z"/><path fill="#7a6070" d="M3 1h2v1h-2zM2 2h2v1h-2z"/><path fill="#4a3a4a" d="M4 2h1v1h-1z"/></g><g transform="translate(472 336) scale(4)"><path fill="#120e1a" d="M1 0h4v1h-4zM0 1h1v2h-1zM5 1h1v2h-1zM1 3h4v1h-4z"/><path fill="#b48a7a" d="M1 1h2v1h-2zM1 2h1v1h-1z"/><path fill="#7a6070" d="M3 1h2v1h-2zM2 2h2v1h-2z"/><path fill="#4a3a4a" d="M4 2h1v1h-1z"/></g><g transform="translate(408 312) scale(4)"><path fill="#1a0e08" d="M2 0h2v1h-2zM18 0h2v1h-2zM4 1h2v1h-2zM16 1h2v1h-2zM1 1h1v2h-1zM20 1h1v2h-1zM6 2h2v1h-2zM14 2h2v1h-2zM2 3h1v1h-1zM8 3h2v1h-2zM12 3h2v1h-2zM19 3h1v1h-1zM3 4h2v1h-2zM10 4h2v1h-2zM17 4h2v1h-2zM2 5h1v1h-1zM5 5h2v1h-2zM15 5h2v1h-2zM19 5h1v1h-1zM6 6h3v1h-3zM13 6h3v1h-3zM1 6h1v2h-1zM20 6h1v2h-1zM6 7h1v1h-1zM15 7h1v1h-1zM2 8h1v1h-1zM5 8h1v1h-1zM10 8h2v1h-2zM16 8h1v1h-1zM19 8h1v1h-1zM3 9h6v1h-6zM13 9h6v1h-6z"/><path fill="#4a2a16" d="M2 1h2v1h-2zM18 1h2v1h-2zM2 2h1v1h-1zM5 2h1v1h-1zM16 2h1v1h-1zM19 2h1v1h-1zM3 3h1v1h-1zM7 3h1v1h-1zM14 3h1v1h-1zM18 3h1v1h-1zM5 4h1v1h-1zM9 4h1v1h-1zM12 4h1v1h-1zM16 4h1v1h-1zM7 5h1v1h-1zM14 5h1v1h-1zM9 6h1v1h-1zM12 6h1v1h-1zM7 7h1v1h-1zM14 7h1v1h-1zM6 8h1v1h-1zM9 8h1v1h-1zM12 8h1v1h-1zM15 8h1v1h-1z"/><path fill="#7a4a2a" d="M3 2h2v1h-2zM17 2h2v1h-2zM4 3h3v1h-3zM15 3h3v1h-3zM6 4h3v1h-3zM13 4h3v1h-3zM8 5h6v1h-6zM10 6h2v1h-2zM8 7h6v1h-6zM7 8h2v1h-2zM13 8h2v1h-2z"/><path fill="#ffb060" d="M3 5h1v1h-1zM18 5h1v1h-1zM3 6h2v2h-2zM17 6h2v2h-2z"/><path fill="#c88a4a" d="M4 5h1v1h-1zM17 5h1v1h-1zM2 6h1v2h-1zM5 6h1v2h-1zM16 6h1v2h-1zM19 6h1v2h-1zM3 8h2v1h-2zM17 8h2v1h-2z"/></g><g><animate attributeName="opacity" values="1;0.6;1" dur="0.9s" repeatCount="indefinite" calcMode="spline" keySplines=".45 0 .55 1;.45 0 .55 1"/><circle cx="452" cy="312" r="60" fill="url(#rg1owycon)"/></g><use href="#secretFlame0-8psddw" x="416" y="236"><animate attributeName="visibility" dur="0.44s" repeatCount="indefinite" calcMode="discrete" values="visible;hidden;hidden;hidden"/></use><use href="#secretFlame1-6vv2w6" x="416" y="236" visibility="hidden"><animate attributeName="visibility" dur="0.44s" repeatCount="indefinite" calcMode="discrete" values="hidden;visible;hidden;hidden"/></use><use href="#secretFlame2-1vsda2" x="416" y="236" visibility="hidden"><animate attributeName="visibility" dur="0.44s" repeatCount="indefinite" calcMode="discrete" values="hidden;hidden;visible;hidden"/></use><use href="#secretFlame3-py3bz2" x="416" y="236" visibility="hidden"><animate attributeName="visibility" dur="0.44s" repeatCount="indefinite" calcMode="discrete" values="hidden;hidden;hidden;visible"/></use><g><animate attributeName="opacity" values="1;.4;1;.7;1" dur="0.8s" repeatCount="indefinite"/><path d="M434 332h4v4h-4zM462 330h4v4h-4zM448 334h4v4h-4z" fill="#ffd34d"/></g><g transform="translate(396 344) scale(4)"><path fill="#120e1a" d="M1 0h4v1h-4zM0 1h1v2h-1zM5 1h1v2h-1zM1 3h4v1h-4z"/><path fill="#b48a7a" d="M1 1h2v1h-2zM1 2h1v1h-1z"/><path fill="#7a6070" d="M3 1h2v1h-2zM2 2h2v1h-2z"/><path fill="#4a3a4a" d="M4 2h1v1h-1z"/></g><g transform="translate(420 344) scale(4)"><path fill="#120e1a" d="M1 0h4v1h-4zM0 1h1v2h-1zM5 1h1v2h-1zM1 3h4v1h-4z"/><path fill="#b48a7a" d="M1 1h2v1h-2zM1 2h1v1h-1z"/><path fill="#7a6070" d="M3 1h2v1h-2zM2 2h2v1h-2z"/><path fill="#4a3a4a" d="M4 2h1v1h-1z"/></g><g transform="translate(464 344) scale(4)"><path fill="#120e1a" d="M1 0h4v1h-4zM0 1h1v2h-1zM5 1h1v2h-1zM1 3h4v1h-4z"/><path fill="#b48a7a" d="M1 1h2v1h-2zM1 2h1v1h-1z"/><path fill="#7a6070" d="M3 1h2v1h-2zM2 2h2v1h-2z"/><path fill="#4a3a4a" d="M4 2h1v1h-1z"/></g><g transform="translate(488 344) scale(4)"><path fill="#120e1a" d="M1 0h4v1h-4zM0 1h1v2h-1zM5 1h1v2h-1zM1 3h4v1h-4z"/><path fill="#b48a7a" d="M1 1h2v1h-2zM1 2h1v1h-1z"/><path fill="#7a6070" d="M3 1h2v1h-2zM2 2h2v1h-2z"/><path fill="#4a3a4a" d="M4 2h1v1h-1z"/></g><g><g opacity="1"><animateTransform attributeName="transform" type="translate" values="0 0;11 -85;14 -170" dur="2.6s" begin="-0.1s" repeatCount="indefinite"/><animate attributeName="opacity" values="1;1;0" dur="2.6s" begin="-0.1s" repeatCount="indefinite"/><rect x="458" y="248" width="3" height="3" fill="#ffd34d"/><rect x="440" y="241" width="3" height="3" fill="#ff8a1e"/></g><g opacity="1"><animateTransform attributeName="transform" type="translate" values="0 0;11 -85;14 -170" dur="2.7s" begin="-1.5s" repeatCount="indefinite"/><animate attributeName="opacity" values="1;1;0" dur="2.7s" begin="-1.5s" repeatCount="indefinite"/><rect x="467" y="252" width="4" height="4" fill="#fff6c8"/><rect x="443" y="261" width="3" height="3" fill="#ffd34d"/></g><g opacity="1"><animateTransform attributeName="transform" type="translate" values="0 0;11 -85;14 -170" dur="2.0s" begin="-2.1s" repeatCount="indefinite"/><animate attributeName="opacity" values="1;1;0" dur="2.0s" begin="-2.1s" repeatCount="indefinite"/><rect x="444" y="243" width="3" height="3" fill="#ff8a1e"/><rect x="459" y="256" width="2" height="2" fill="#fff6c8"/></g><g opacity="1"><animateTransform attributeName="transform" type="translate" values="0 0;14 -85;14 -170" dur="2.5s" begin="-2.6s" repeatCount="indefinite"/><animate attributeName="opacity" values="1;1;0" dur="2.5s" begin="-2.6s" repeatCount="indefinite"/><rect x="465" y="232" width="3" height="3" fill="#ffd34d"/><rect x="445" y="237" width="2" height="2" fill="#ff8a1e"/></g><g opacity="1"><animateTransform attributeName="transform" type="translate" values="0 0;9 -85;14 -170" dur="3.0s" begin="-1.0s" repeatCount="indefinite"/><animate attributeName="opacity" values="1;1;0" dur="3.0s" begin="-1.0s" repeatCount="indefinite"/><rect x="424" y="233" width="3" height="3" fill="#fff6c8"/><rect x="474" y="267" width="3" height="3" fill="#ffd34d"/></g><g opacity="1"><animateTransform attributeName="transform" type="translate" values="0 0;0 -85;14 -170" dur="2.2s" begin="-0.7s" repeatCount="indefinite"/><animate attributeName="opacity" values="1;1;0" dur="2.2s" begin="-0.7s" repeatCount="indefinite"/><rect x="458" y="258" width="2" height="2" fill="#ff8a1e"/><rect x="442" y="258" width="4" height="4" fill="#fff6c8"/></g><g opacity="1"><animateTransform attributeName="transform" type="translate" values="0 0;6 -85;14 -170" dur="2.2s" begin="-2.4s" repeatCount="indefinite"/><animate attributeName="opacity" values="1;1;0" dur="2.2s" begin="-2.4s" repeatCount="indefinite"/><rect x="460" y="269" width="2" height="2" fill="#ffd34d"/><rect x="424" y="273" width="2" height="2" fill="#ff8a1e"/></g><g opacity="1"><animateTransform attributeName="transform" type="translate" values="0 0;0 -85;14 -170" dur="3.4s" begin="-1.3s" repeatCount="indefinite"/><animate attributeName="opacity" values="1;1;0" dur="3.4s" begin="-1.3s" repeatCount="indefinite"/><rect x="446" y="280" width="3" height="3" fill="#fff6c8"/><rect x="434" y="275" width="3" height="3" fill="#ffd34d"/></g><g opacity="1"><animateTransform attributeName="transform" type="translate" values="0 0;2 -85;14 -170" dur="2.9s" begin="-0.9s" repeatCount="indefinite"/><animate attributeName="opacity" values="1;1;0" dur="2.9s" begin="-0.9s" repeatCount="indefinite"/><rect x="431" y="252" width="3" height="3" fill="#ff8a1e"/><rect x="429" y="275" width="3" height="3" fill="#fff6c8"/></g><g opacity="1"><animateTransform attributeName="transform" type="translate" values="0 0;0 -85;14 -170" dur="2.7s" begin="-1.8s" repeatCount="indefinite"/><animate attributeName="opacity" values="1;1;0" dur="2.7s" begin="-1.8s" repeatCount="indefinite"/><rect x="429" y="247" width="4" height="4" fill="#ffd34d"/><rect x="482" y="237" width="2" height="2" fill="#ff8a1e"/></g><g opacity="1"><animateTransform attributeName="transform" type="translate" values="0 0;13 -85;14 -170" dur="3.4s" begin="-1.9s" repeatCount="indefinite"/><animate attributeName="opacity" values="1;1;0" dur="3.4s" begin="-1.9s" repeatCount="indefinite"/><rect x="456" y="280" width="3" height="3" fill="#fff6c8"/><rect x="428" y="274" width="4" height="4" fill="#ffd34d"/></g><g opacity="1"><animateTransform attributeName="transform" type="translate" values="0 0;13 -85;14 -170" dur="2.0s" begin="-1.9s" repeatCount="indefinite"/><animate attributeName="opacity" values="1;1;0" dur="2.0s" begin="-1.9s" repeatCount="indefinite"/><rect x="467" y="261" width="2" height="2" fill="#ff8a1e"/><rect x="464" y="246" width="3" height="3" fill="#fff6c8"/></g><g opacity="1"><animateTransform attributeName="transform" type="translate" values="0 0;6 -85;14 -170" dur="2.2s" begin="-2.6s" repeatCount="indefinite"/><animate attributeName="opacity" values="1;1;0" dur="2.2s" begin="-2.6s" repeatCount="indefinite"/><rect x="477" y="254" width="4" height="4" fill="#ffd34d"/><rect x="423" y="268" width="2" height="2" fill="#ff8a1e"/></g></g><g><g opacity="0.9"><animateTransform attributeName="transform" type="translate" values="0 0;-18 -60;-26 -120" dur="2.7s" begin="-2.2s" repeatCount="indefinite"/><animate attributeName="opacity" values="0.9;0.9;0" dur="2.7s" begin="-2.2s" repeatCount="indefinite"/><rect x="457" y="282" width="3" height="3" fill="#ffb454"/></g><g opacity="0.9"><animateTransform attributeName="transform" type="translate" values="0 0;-7 -60;-26 -120" dur="1.6s" begin="-0.4s" repeatCount="indefinite"/><animate attributeName="opacity" values="0.9;0.9;0" dur="1.6s" begin="-0.4s" repeatCount="indefinite"/><rect x="437" y="271" width="3" height="3" fill="#ffe98a"/></g><g opacity="0.9"><animateTransform attributeName="transform" type="translate" values="0 0;-16 -60;-26 -120" dur="1.8s" begin="-1.8s" repeatCount="indefinite"/><animate attributeName="opacity" values="0.9;0.9;0" dur="1.8s" begin="-1.8s" repeatCount="indefinite"/><rect x="462" y="270" width="3" height="3" fill="#ffb454"/></g><g opacity="0.9"><animateTransform attributeName="transform" type="translate" values="0 0;-10 -60;-26 -120" dur="2.2s" begin="-0.6s" repeatCount="indefinite"/><animate attributeName="opacity" values="0.9;0.9;0" dur="2.2s" begin="-0.6s" repeatCount="indefinite"/><rect x="464" y="289" width="2" height="2" fill="#ffe98a"/></g><g opacity="0.9"><animateTransform attributeName="transform" type="translate" values="0 0;-15 -60;-26 -120" dur="2.0s" begin="-1.7s" repeatCount="indefinite"/><animate attributeName="opacity" values="0.9;0.9;0" dur="2.0s" begin="-1.7s" repeatCount="indefinite"/><rect x="456" y="278" width="2" height="2" fill="#ffb454"/></g><g opacity="0.9"><animateTransform attributeName="transform" type="translate" values="0 0;-9 -60;-26 -120" dur="1.6s" begin="-1.6s" repeatCount="indefinite"/><animate attributeName="opacity" values="0.9;0.9;0" dur="1.6s" begin="-1.6s" repeatCount="indefinite"/><rect x="453" y="276" width="3" height="3" fill="#ffe98a"/></g><g opacity="0.9"><animateTransform attributeName="transform" type="translate" values="0 0;-19 -60;-26 -120" dur="1.6s" begin="-1.0s" repeatCount="indefinite"/><animate attributeName="opacity" values="0.9;0.9;0" dur="1.6s" begin="-1.0s" repeatCount="indefinite"/><rect x="467" y="264" width="3" height="3" fill="#ffb454"/></g><g opacity="0.9"><animateTransform attributeName="transform" type="translate" values="0 0;-8 -60;-26 -120" dur="2.2s" begin="-0.6s" repeatCount="indefinite"/><animate attributeName="opacity" values="0.9;0.9;0" dur="2.2s" begin="-0.6s" repeatCount="indefinite"/><rect x="472" y="282" width="2" height="2" fill="#ffe98a"/></g><g opacity="0.9"><animateTransform attributeName="transform" type="translate" values="0 0;-19 -60;-26 -120" dur="2.7s" begin="-1.1s" repeatCount="indefinite"/><animate attributeName="opacity" values="0.9;0.9;0" dur="2.7s" begin="-1.1s" repeatCount="indefinite"/><rect x="441" y="280" width="2" height="2" fill="#ffb454"/></g><g opacity="0.9"><animateTransform attributeName="transform" type="translate" values="0 0;-14 -60;-26 -120" dur="2.2s" begin="-1.2s" repeatCount="indefinite"/><animate attributeName="opacity" values="0.9;0.9;0" dur="2.2s" begin="-1.2s" repeatCount="indefinite"/><rect x="467" y="267" width="2" height="2" fill="#ffe98a"/></g></g><g><animateTransform attributeName="transform" type="rotate" values="-1.2 558 320;1.2 558 320;-1.2 558 320" dur="2.4s" repeatCount="indefinite" calcMode="spline" keySplines=".45 0 .55 1;.45 0 .55 1"/><path d="M558 320L482 278" stroke="#0c0a14" stroke-width="6"/><path d="M558 320L482 278" stroke="#a87a4a" stroke-width="2.5"/><rect x="472" y="268" width="16" height="14" fill="#0c0a14"/><rect x="474" y="270" width="12" height="10" fill="#fffbf0"><animate attributeName="fill" values="#fffbf0;#f0c070;#c87a30;#fffbf0" keyTimes="0;.5;.9;1" dur="6s" repeatCount="indefinite"/></rect><rect x="474" y="270" width="12" height="3" fill="#fff" opacity=".7"/></g><g transform="translate(587 348)"><g><animateTransform attributeName="transform" type="scale" values="1 1;1.04 0.96;0.98 1.02;1 1" dur="2.6s" repeatCount="indefinite" calcMode="spline" keySplines=".45 0 .55 1;.45 0 .55 1;.45 0 .55 1"/><g transform="translate(-587 -348)"><g transform="translate(548 276) scale(3)"><path fill="#3fdc5a" fill-opacity="0.9" d="M4 0h22v1h-22zM3 1h1v1h-1zM24 1h2v1h-2zM2 2h1v1h-1zM23 2h1v1h-1zM1 3h1v1h-1zM22 3h1v1h-1zM0 4h22v1h-22zM25 2h1v18h-1zM24 20h1v1h-1zM21 5h1v17h-1zM23 21h1v1h-1zM0 5h1v18h-1zM21 22h2v1h-2zM0 23h22v1h-22z"/><path fill="#b4ffbc" fill-opacity="0.55" d="M4 1h20v1h-20zM3 2h20v1h-20zM2 3h20v1h-20z"/><path fill="#2fae4a" fill-opacity="0.5" d="M24 2h1v1h-1zM23 3h2v1h-2zM22 4h3v16h-3zM22 20h2v1h-2zM22 21h1v1h-1z"/><path fill="#7dff8a" fill-opacity="0.38" d="M3 5h1v1h-1zM5 5h8v1h-8zM14 5h7v1h-7zM4 6h8v1h-8zM13 6h8v1h-8zM3 7h8v1h-8zM12 7h4v1h-4zM3 8h7v1h-7zM11 8h4v1h-4zM8 9h1v1h-1zM10 9h2v1h-2zM14 9h1v1h-1zM3 9h3v2h-3zM9 10h3v1h-3zM14 10h2v1h-2zM20 10h1v1h-1zM1 11h6v1h-6zM8 11h8v1h-8zM17 11h4v1h-4zM1 12h5v1h-5zM8 12h4v1h-4zM14 12h1v1h-1zM16 12h5v1h-5zM1 13h4v1h-4zM6 13h1v1h-1zM13 13h1v1h-1zM15 13h6v1h-6zM1 14h3v1h-3zM5 14h8v1h-8zM14 14h7v1h-7zM1 15h2v1h-2zM4 15h8v1h-8zM19 15h2v1h-2zM1 16h1v1h-1zM3 16h8v1h-8zM12 16h1v1h-1zM19 16h1v1h-1zM2 17h2v1h-2zM6 17h4v1h-4zM20 17h1v1h-1zM11 17h2v2h-2zM1 18h2v1h-2zM4 18h2v1h-2zM19 18h2v2h-2zM1 19h3v1h-3zM6 19h2v1h-2zM10 19h3v1h-3zM1 20h6v1h-6zM8 20h1v1h-1zM11 20h5v1h-5zM17 20h4v1h-4zM1 21h5v1h-5zM7 21h8v1h-8zM16 21h5v1h-5zM1 22h4v1h-4zM6 22h8v1h-8zM15 22h6v1h-6z"/><path fill="#a8ffb0" fill-opacity="0.5" d="M4 5h1v1h-1zM13 5h1v1h-1zM3 6h1v1h-1zM12 6h1v1h-1zM11 7h1v1h-1zM20 7h1v1h-1zM10 8h1v1h-1zM9 9h1v1h-1zM8 10h1v1h-1zM7 11h1v1h-1zM16 11h1v1h-1zM15 12h1v1h-1zM5 13h1v1h-1zM14 13h1v1h-1zM4 14h1v1h-1zM13 14h1v1h-1zM3 15h1v1h-1zM12 15h1v1h-1zM2 16h1v1h-1zM11 16h1v1h-1zM20 16h1v1h-1zM1 17h1v1h-1zM10 17h1v1h-1zM19 17h1v1h-1zM8 19h1v1h-1zM7 20h1v1h-1zM16 20h1v1h-1zM6 21h1v1h-1zM15 21h1v1h-1zM5 22h1v1h-1zM14 22h1v1h-1z"/><path fill="#fffbf0" fill-opacity="0.9" d="M16 7h4v1h-4zM15 8h4v2h-4zM20 8h1v2h-1zM16 10h2v1h-2z"/><path fill="#e8d8c0" fill-opacity="0.9" d="M19 8h1v2h-1zM18 10h2v1h-2z"/><path fill="#e6ffe6" fill-opacity="0.7" d="M1 5h2v6h-2z"/><path fill="#0c2a12" d="M6 9h2v2h-2zM12 9h2v2h-2zM6 12h2v1h-2zM12 12h2v1h-2zM7 13h6v1h-6z"/><path fill="#e9dcc0" fill-opacity="0.85" d="M13 15h6v1h-6zM13 16h1v1h-1zM16 16h1v1h-1zM18 16h1v1h-1zM13 17h6v1h-6zM13 18h1v1h-1zM15 18h1v1h-1zM18 18h1v1h-1zM13 19h6v1h-6z"/><path fill="#c0392b" fill-opacity="0.85" d="M14 16h2v1h-2zM17 16h1v1h-1zM14 18h1v1h-1zM16 18h2v1h-2z"/><path fill="#e8c04a" fill-opacity="0.9" d="M4 17h2v1h-2zM3 18h1v1h-1zM6 18h5v1h-5zM4 19h2v1h-2zM9 19h1v1h-1zM9 20h2v1h-2z"/></g></g></g></g><g><animateTransform attributeName="transform" type="translate" values="0 0;0 2;0 0" dur="3s" repeatCount="indefinite" calcMode="spline" keySplines=".45 0 .55 1;.45 0 .55 1"/><g transform="rotate(7 686 342)"><use href="#secretChoir0-18h3laj" x="654" y="246"/><g><animate attributeName="opacity" values="1;0.15;1" dur="3s" repeatCount="indefinite" calcMode="spline" keySplines=".45 0 .55 1;.45 0 .55 1"/><rect x="682" y="274" width="8" height="4" fill="#5ce1ff"/></g></g></g><g><animateTransform attributeName="transform" type="translate" values="0 0;10 -20;4 -42" dur="3.4s" begin="0s" repeatCount="indefinite"/><animate attributeName="opacity" values="1;1;0" dur="3.4s" begin="0s" repeatCount="indefinite"/><use href="#t1elx4b3" transform="translate(696 234) scale(2)" fill="#1a1430"/><use href="#t1elx4b3" transform="translate(694 232) scale(2)" fill="#9af0ff"/></g><g><animateTransform attributeName="transform" type="translate" values="0 0;0 2;0 0" dur="3.3s" begin="-0.7s" repeatCount="indefinite" calcMode="spline" keySplines=".45 0 .55 1;.45 0 .55 1"/><g transform="rotate(-2 752 342)"><use href="#secretChoir1-luvrxr" x="720" y="246"/><g><animate attributeName="opacity" values="1;0.15;1" dur="3.4s" begin="-1s" repeatCount="indefinite" calcMode="spline" keySplines=".45 0 .55 1;.45 0 .55 1"/><rect x="748" y="274" width="8" height="4" fill="#5ce1ff"/></g></g></g><g><animateTransform attributeName="transform" type="translate" values="0 0;10 -20;4 -42" dur="3.4s" begin="-1.1s" repeatCount="indefinite"/><animate attributeName="opacity" values="1;1;0" dur="3.4s" begin="-1.1s" repeatCount="indefinite"/><use href="#t1elx4b3" transform="translate(762 234) scale(2)" fill="#1a1430"/><use href="#t1elx4b3" transform="translate(760 232) scale(2)" fill="#9af0ff"/></g><g><animateTransform attributeName="transform" type="translate" values="0 0;0 2;0 0" dur="3.6s" begin="-1.4s" repeatCount="indefinite" calcMode="spline" keySplines=".45 0 .55 1;.45 0 .55 1"/><g transform="rotate(-8 818 342)"><use href="#secretChoir2-1dkkijm" x="786" y="246"/><g><animate attributeName="opacity" values="1;0.15;1" dur="3.8s" begin="-2s" repeatCount="indefinite" calcMode="spline" keySplines=".45 0 .55 1;.45 0 .55 1"/><rect x="814" y="274" width="8" height="4" fill="#5ce1ff"/></g></g></g><g><animateTransform attributeName="transform" type="translate" values="0 0;10 -20;4 -42" dur="3.4s" begin="-2.2s" repeatCount="indefinite"/><animate attributeName="opacity" values="1;1;0" dur="3.4s" begin="-2.2s" repeatCount="indefinite"/><use href="#t1elx4b3" transform="translate(828 234) scale(2)" fill="#1a1430"/><use href="#t1elx4b3" transform="translate(826 232) scale(2)" fill="#9af0ff"/></g><g transform="translate(630 326) scale(4)"><path fill="#120a06" d="M1 0h54v1h-54zM0 2h1v2h-1zM55 1h1v4h-1zM1 5h54v1h-54z"/><path fill="#d89a5a" d="M1 1h4v1h-4zM1 2h1v2h-1zM4 2h1v2h-1zM1 4h4v1h-4z"/><path fill="#8a5a32" d="M5 1h50v1h-50z"/><path fill="#5a3a22" d="M5 2h15v1h-15zM21 2h12v1h-12zM34 2h5v1h-5zM40 2h2v1h-2zM43 2h12v1h-12zM5 3h1v1h-1zM8 3h6v1h-6zM15 3h7v1h-7zM23 3h2v1h-2zM26 3h11v1h-11zM38 3h8v1h-8zM47 3h8v1h-8z"/><path fill="#3a2416" d="M20 2h1v1h-1zM33 2h1v1h-1zM39 2h1v1h-1zM42 2h1v1h-1zM6 3h2v1h-2zM14 3h1v1h-1zM22 3h1v1h-1zM25 3h1v1h-1zM37 3h1v1h-1zM46 3h1v1h-1zM5 4h50v1h-50z"/><path fill="#a86a34" d="M2 2h2v2h-2z"/></g><rect x="0" y="44" width="900" height="340" fill="url(#secretWarm)"><animate attributeName="opacity" values="1;.75;.95;.7;1;.85;1" dur="1.7s" repeatCount="indefinite"/></rect><rect x="0" y="44" width="900" height="340" fill="url(#secretDark)"/><g><g opacity="0.95"><animateTransform attributeName="transform" type="translate" values="0 0;-6 -14;-18 -28" dur="6.4s" begin="-3.0s" repeatCount="indefinite"/><animate attributeName="opacity" values="0.95;0.95;0" dur="6.4s" begin="-3.0s" repeatCount="indefinite"/><rect x="703" y="280" width="3" height="3" fill="#e8ff8a"/><rect x="267" y="224" width="3" height="3" fill="#e8ff8a"/></g><g opacity="0.95"><animateTransform attributeName="transform" type="translate" values="0 0;-14 -14;-18 -28" dur="4.2s" begin="-1.1s" repeatCount="indefinite"/><animate attributeName="opacity" values="0.95;0.95;0" dur="4.2s" begin="-1.1s" repeatCount="indefinite"/><rect x="284" y="305" width="3" height="3" fill="#e8ff8a"/><rect x="484" y="221" width="3" height="3" fill="#e8ff8a"/></g><g opacity="0.95"><animateTransform attributeName="transform" type="translate" values="0 0;-1 -14;-18 -28" dur="6.2s" begin="-4.4s" repeatCount="indefinite"/><animate attributeName="opacity" values="0.95;0.95;0" dur="6.2s" begin="-4.4s" repeatCount="indefinite"/><rect x="400" y="257" width="3" height="3" fill="#e8ff8a"/><rect x="421" y="160" width="3" height="3" fill="#e8ff8a"/></g><g opacity="0.95"><animateTransform attributeName="transform" type="translate" values="0 0;-17 -14;-18 -28" dur="4.2s" begin="-1.2s" repeatCount="indefinite"/><animate attributeName="opacity" values="0.95;0.95;0" dur="4.2s" begin="-1.2s" repeatCount="indefinite"/><rect x="123" y="270" width="3" height="3" fill="#e8ff8a"/><rect x="740" y="248" width="3" height="3" fill="#e8ff8a"/></g><g opacity="0.95"><animateTransform attributeName="transform" type="translate" values="0 0;-14 -14;-18 -28" dur="4.6s" begin="-0.1s" repeatCount="indefinite"/><animate attributeName="opacity" values="0.95;0.95;0" dur="4.6s" begin="-0.1s" repeatCount="indefinite"/><rect x="491" y="287" width="3" height="3" fill="#e8ff8a"/><rect x="256" y="266" width="3" height="3" fill="#e8ff8a"/></g></g></g>
<rect x="0" y="384" width="900" height="128" fill="#000"/><rect x="0" y="384" width="900" height="2" fill="#2a2140"/><rect x="16" y="394" width="868" height="108" fill="#0a0816" fill-opacity=".94"/><rect x="17.5" y="395.5" width="865" height="105" fill="none" stroke="#f6c84e" stroke-width="3"/><rect x="21" y="399" width="858" height="98" fill="none" stroke="#000" stroke-width="2" opacity=".7"/><rect x="16" y="394" width="8" height="8" fill="#f6c84e"/><rect x="18" y="396" width="4" height="4" fill="#fff" opacity=".55"/><rect x="876" y="394" width="8" height="8" fill="#f6c84e"/><rect x="878" y="396" width="4" height="4" fill="#fff" opacity=".55"/><rect x="16" y="494" width="8" height="8" fill="#f6c84e"/><rect x="18" y="496" width="4" height="4" fill="#fff" opacity=".55"/><rect x="876" y="494" width="8" height="8" fill="#f6c84e"/><rect x="878" y="496" width="4" height="4" fill="#fff" opacity=".55"/><rect x="24" y="398" width="100" height="100" fill="#f6c84e"/><rect x="26" y="400" width="96" height="96" fill="#1b1530"/><g transform="translate(26 400) scale(3)"><path fill="#8e1a1a" d="M13 0h1v1h-1zM18 0h1v1h-1zM12 1h1v1h-1zM19 1h1v1h-1zM11 2h1v1h-1zM20 2h1v1h-1zM12 3h1v1h-1zM19 3h1v1h-1z"/><path fill="#e8342c" d="M14 0h4v1h-4zM13 1h6v1h-6zM12 2h8v1h-8zM13 3h6v2h-6zM14 5h4v1h-4zM15 6h2v1h-2z"/><path fill="#0c0a14" d="M7 3h5v1h-5zM20 3h5v1h-5zM5 4h2v1h-2zM12 4h1v1h-1zM19 4h1v1h-1zM25 4h2v1h-2zM4 5h1v1h-1zM13 5h1v1h-1zM18 5h1v1h-1zM27 5h1v1h-1zM14 6h1v1h-1zM17 6h1v1h-1zM3 6h1v2h-1zM28 6h1v2h-1zM15 7h2v1h-2zM5 12h22v1h-22zM2 8h1v8h-1zM29 8h1v8h-1zM1 16h3v1h-3zM28 16h3v1h-3zM10 17h1v1h-1zM22 17h1v1h-1zM9 18h2v1h-2zM21 18h2v1h-2zM0 17h1v4h-1zM3 17h1v4h-1zM28 17h1v4h-1zM31 17h1v4h-1zM1 21h3v1h-3zM28 21h3v1h-3zM5 13h1v13h-1zM26 13h1v13h-1zM2 22h1v4h-1zM29 22h1v4h-1zM2 26h2v1h-2zM5 26h2v1h-2zM25 26h2v1h-2zM28 26h2v1h-2zM1 27h1v1h-1zM4 27h2v1h-2zM7 27h2v1h-2zM23 27h2v1h-2zM26 27h2v1h-2zM30 27h1v1h-1zM6 28h1v1h-1zM8 28h16v1h-16zM25 28h1v1h-1zM7 29h1v1h-1zM24 29h1v1h-1zM0 28h1v4h-1zM31 28h1v4h-1zM8 30h1v2h-1zM23 30h1v2h-1z"/><path fill="#f4f8ff" d="M7 4h5v1h-5zM20 4h5v1h-5zM5 5h8v1h-8zM19 5h8v1h-8zM4 6h3v1h-3zM13 6h1v1h-1zM18 6h1v1h-1zM25 6h3v1h-3zM4 7h2v1h-2zM14 7h1v1h-1zM17 7h1v1h-1zM26 7h2v1h-2zM3 8h2v1h-2zM27 8h2v1h-2zM3 9h1v7h-1zM28 9h1v7h-1zM2 27h2v1h-2zM28 27h2v1h-2zM1 28h5v1h-5zM26 28h5v1h-5zM6 29h1v1h-1zM25 29h1v1h-1zM1 29h1v2h-1zM30 29h1v2h-1zM7 30h1v1h-1zM24 30h1v1h-1z"/><path fill="#a9b6c8" d="M7 6h6v1h-6zM19 6h6v1h-6zM6 7h8v1h-8zM18 7h8v1h-8zM5 8h22v1h-22zM4 9h24v1h-24zM4 10h2v1h-2zM26 10h2v1h-2zM4 11h1v16h-1zM27 11h1v16h-1zM2 29h4v1h-4zM26 29h4v1h-4zM2 30h5v1h-5zM9 30h14v1h-14zM25 30h5v1h-5z"/><path fill="#f6c84e" d="M6 10h20v1h-20zM5 11h1v1h-1zM26 11h1v1h-1zM6 27h1v1h-1zM25 27h1v1h-1zM7 28h1v1h-1zM24 28h1v1h-1zM8 29h16v1h-16z"/><path fill="#a06c18" d="M6 11h20v1h-20z"/><path fill="#4a2a1c" d="M6 13h20v2h-20zM6 15h2v1h-2zM24 15h2v1h-2zM6 16h1v3h-1zM25 16h1v3h-1zM6 19h2v6h-2zM24 19h2v6h-2zM6 25h3v1h-3zM23 25h3v1h-3zM7 26h4v1h-4zM21 26h4v1h-4zM9 27h14v1h-14z"/><path fill="#24140d" d="M8 15h16v1h-16zM7 16h18v1h-18zM22 22h1v1h-1zM9 23h13v1h-13z"/><path fill="#f7f3ea" d="M9 17h1v1h-1zM21 17h1v1h-1z"/><path fill="#8a5a3e" d="M7 17h2v2h-2zM11 17h10v2h-10zM23 17h2v2h-2zM8 19h16v1h-16zM8 20h3v1h-3zM21 20h3v1h-3zM8 21h1v1h-1zM23 21h1v1h-1z"/><path fill="#a06a44" d="M1 17h1v3h-1zM30 17h1v3h-1zM1 20h2v1h-2zM29 20h2v1h-2z"/><path fill="#4a2618" d="M2 17h1v3h-1zM29 17h1v3h-1z"/><path fill="#d4a070" d="M11 20h1v1h-1zM20 20h1v1h-1zM9 21h5v1h-5zM15 21h2v1h-2zM18 21h5v1h-5zM8 22h14v1h-14zM23 22h1v1h-1zM8 23h1v1h-1zM22 23h2v1h-2zM8 24h16v1h-16zM9 25h14v1h-14zM11 26h10v1h-10z"/><path fill="#ecc08e" d="M12 20h8v1h-8z"/><path fill="#1e0e06" d="M14 21h1v1h-1zM17 21h1v1h-1z"/><path fill="#5d6a82" d="M3 22h1v4h-1zM28 22h1v4h-1zM1 31h7v1h-7zM9 31h14v1h-14zM24 31h7v1h-7z"/></g><g visibility="hidden"><animate attributeName="visibility" values="hidden;visible;hidden" keyTimes="0;.94;.97" dur="4.2s" repeatCount="indefinite" calcMode="discrete"/><rect x="53" y="451" width="3" height="3" fill="#8a5a3e"/><rect x="56" y="451" width="3" height="3" fill="#8a5a3e"/><rect x="89" y="451" width="3" height="3" fill="#8a5a3e"/><rect x="92" y="451" width="3" height="3" fill="#8a5a3e"/><rect x="53" y="454" width="3" height="3" fill="#24140d"/><rect x="56" y="454" width="3" height="3" fill="#24140d"/><rect x="89" y="454" width="3" height="3" fill="#24140d"/><rect x="92" y="454" width="3" height="3" fill="#24140d"/></g><use href="#ttjw6lu" transform="translate(139 410) scale(3)" fill="#000"/><use href="#ttjw6lu" transform="translate(136 407) scale(3)" fill="#f6c84e"/><text x="136" y="458" font-family="-apple-system,BlinkMacSystemFont,'Segoe UI',Helvetica,Arial,'Liberation Sans',sans-serif" font-size="22" font-weight="600" fill="#fff6dc">The real treasure was the friends we made</text><text x="136" y="487" font-family="-apple-system,BlinkMacSystemFont,'Segoe UI',Helvetica,Arial,'Liberation Sans',sans-serif" font-size="22" font-weight="600" fill="#fff6dc">along the way. And the rollback plan.</text><g><animate attributeName="visibility" values="visible;hidden" keyTimes="0;0.6" dur="0.9s" repeatCount="indefinite" calcMode="discrete"/><path d="M854 478h14l-7 8z" fill="#f6c84e"/></g>
<rect x="0" y="0" width="900" height="44" fill="#000"/><rect x="0" y="42" width="900" height="2" fill="#2a2140"/><g><animate attributeName="visibility" values="visible;hidden" keyTimes="0;0.75" dur="1s" repeatCount="indefinite" calcMode="discrete"/><use href="#t1mi5jgg" transform="translate(21 15) scale(3)" fill="#000"/><use href="#t1mi5jgg" transform="translate(18 12) scale(3)" fill="#ff3b3b"/></g><use href="#ttjw6lu" transform="translate(93 15) scale(3)" fill="#000"/><use href="#ttjw6lu" transform="translate(90 12) scale(3)" fill="#fff"/><use href="#t108nj6l" transform="translate(349 15) scale(3)" fill="#000"/><use href="#t108nj6l" transform="translate(346 12) scale(3)" fill="#f6c84e"/><rect x="686" y="6" width="30" height="30" fill="#1d1630" stroke="#f6c84e" stroke-width="2"/><use href="#relic1-ooymw" x="687" y="7"/><rect x="720" y="6" width="30" height="30" fill="#1d1630" stroke="#f6c84e" stroke-width="2"/><use href="#relic2-1826ouq" x="721" y="7"/><rect x="754" y="6" width="30" height="30" fill="#1d1630" stroke="#f6c84e" stroke-width="2"/><use href="#relic3-43pumf" x="755" y="7"/><rect x="788" y="6" width="30" height="30" fill="#1d1630" stroke="#f6c84e" stroke-width="2"/><use href="#relic4-jei5fa" x="789" y="7"/><rect x="822" y="6" width="30" height="30" fill="#1d1630" stroke="#f6c84e" stroke-width="2"/><use href="#relic5-16ieeuz" x="823" y="7"/><rect x="856" y="6" width="30" height="30" fill="#1d1630" stroke="#f6c84e" stroke-width="2"/><use href="#relic6-1f3doe3" x="857" y="7"/>
<rect x="1" y="1" width="898" height="510" fill="none" stroke="#000" stroke-width="2"/>
</svg>
